<?xml version="1.0" encoding="utf-8" standalone="no"?>
<!DOCTYPE svg PUBLIC "-//W3C//DTD SVG 1.1//EN"
  "http://www.w3.org/Graphics/SVG/1.1/DTD/svg11.dtd">
<!-- Created with matplotlib (http://matplotlib.org/) -->
<svg height="303pt" version="1.1" viewBox="0 0 540 303" width="540pt" xmlns="http://www.w3.org/2000/svg" xmlns:xlink="http://www.w3.org/1999/xlink">
 <defs>
  <style type="text/css">
*{stroke-linecap:butt;stroke-linejoin:round;stroke-miterlimit:100000;}
  </style>
 </defs>
 <g id="figure_1">
  <g id="patch_1">
   <path d="M 0 303.75 
L 540 303.75 
L 540 0 
L 0 0 
z
" style="fill:#ffffff;"/>
  </g>
  <g id="axes_1">
   <g id="patch_2">
    <path d="M 52.686563 259.885125 
L 517.512656 259.885125 
L 517.512656 33.26 
L 52.686563 33.26 
z
" style="fill:#ffffff;"/>
   </g>
   <g id="patch_3">
    <path clip-path="url(#pa3020e783c)" d="M 65.492482 259.885125 
L 74.012642 259.885125 
L 74.012642 204.985628 
L 65.492482 204.985628 
z
" style="fill:#5d80b4;opacity:0.4;stroke:#000000;stroke-linejoin:miter;"/>
   </g>
   <g id="patch_4">
    <path clip-path="url(#pa3020e783c)" d="M 74.012642 259.885125 
L 82.532802 259.885125 
L 82.532802 244.513266 
L 74.012642 244.513266 
z
" style="fill:#5d80b4;opacity:0.4;stroke:#000000;stroke-linejoin:miter;"/>
   </g>
   <g id="patch_5">
    <path clip-path="url(#pa3020e783c)" d="M 82.532802 259.885125 
L 91.052962 259.885125 
L 91.052962 259.885125 
L 82.532802 259.885125 
z
" style="fill:#5d80b4;opacity:0.4;stroke:#000000;stroke-linejoin:miter;"/>
   </g>
   <g id="patch_6">
    <path clip-path="url(#pa3020e783c)" d="M 91.052962 259.885125 
L 99.573123 259.885125 
L 99.573123 257.689145 
L 91.052962 257.689145 
z
" style="fill:#5d80b4;opacity:0.4;stroke:#000000;stroke-linejoin:miter;"/>
   </g>
   <g id="patch_7">
    <path clip-path="url(#pa3020e783c)" d="M 99.573123 259.885125 
L 108.093283 259.885125 
L 108.093283 99.578593 
L 99.573123 99.578593 
z
" style="fill:#5d80b4;opacity:0.4;stroke:#000000;stroke-linejoin:miter;"/>
   </g>
   <g id="patch_8">
    <path clip-path="url(#pa3020e783c)" d="M 108.093283 259.885125 
L 116.613443 259.885125 
L 116.613443 119.342412 
L 108.093283 119.342412 
z
" style="fill:#5d80b4;opacity:0.4;stroke:#000000;stroke-linejoin:miter;"/>
   </g>
   <g id="patch_9">
    <path clip-path="url(#pa3020e783c)" d="M 116.613443 259.885125 
L 125.133603 259.885125 
L 125.133603 185.221809 
L 116.613443 185.221809 
z
" style="fill:#5d80b4;opacity:0.4;stroke:#000000;stroke-linejoin:miter;"/>
   </g>
   <g id="patch_10">
    <path clip-path="url(#pa3020e783c)" d="M 125.133603 259.885125 
L 133.653763 259.885125 
L 133.653763 251.101205 
L 125.133603 251.101205 
z
" style="fill:#5d80b4;opacity:0.4;stroke:#000000;stroke-linejoin:miter;"/>
   </g>
   <g id="patch_11">
    <path clip-path="url(#pa3020e783c)" d="M 133.653763 259.885125 
L 142.173923 259.885125 
L 142.173923 191.809748 
L 133.653763 191.809748 
z
" style="fill:#5d80b4;opacity:0.4;stroke:#000000;stroke-linejoin:miter;"/>
   </g>
   <g id="patch_12">
    <path clip-path="url(#pa3020e783c)" d="M 142.173923 259.885125 
L 150.694084 259.885125 
L 150.694084 99.578593 
L 142.173923 99.578593 
z
" style="fill:#5d80b4;opacity:0.4;stroke:#000000;stroke-linejoin:miter;"/>
   </g>
   <g id="patch_13">
    <path clip-path="url(#pa3020e783c)" d="M 150.694084 259.885125 
L 159.214244 259.885125 
L 159.214244 71.030854 
L 150.694084 71.030854 
z
" style="fill:#5d80b4;opacity:0.4;stroke:#000000;stroke-linejoin:miter;"/>
   </g>
   <g id="patch_14">
    <path clip-path="url(#pa3020e783c)" d="M 159.214244 259.885125 
L 167.734404 259.885125 
L 167.734404 189.613768 
L 159.214244 189.613768 
z
" style="fill:#5d80b4;opacity:0.4;stroke:#000000;stroke-linejoin:miter;"/>
   </g>
   <g id="patch_15">
    <path clip-path="url(#pa3020e783c)" d="M 167.734404 259.885125 
L 176.254564 259.885125 
L 176.254564 242.317286 
L 167.734404 242.317286 
z
" style="fill:#5d80b4;opacity:0.4;stroke:#000000;stroke-linejoin:miter;"/>
   </g>
   <g id="patch_16">
    <path clip-path="url(#pa3020e783c)" d="M 176.254564 259.885125 
L 184.774724 259.885125 
L 184.774724 169.849949 
L 176.254564 169.849949 
z
" style="fill:#5d80b4;opacity:0.4;stroke:#000000;stroke-linejoin:miter;"/>
   </g>
   <g id="patch_17">
    <path clip-path="url(#pa3020e783c)" d="M 184.774724 259.885125 
L 193.294884 259.885125 
L 193.294884 92.990653 
L 184.774724 92.990653 
z
" style="fill:#5d80b4;opacity:0.4;stroke:#000000;stroke-linejoin:miter;"/>
   </g>
   <g id="patch_18">
    <path clip-path="url(#pa3020e783c)" d="M 193.294884 259.885125 
L 201.815045 259.885125 
L 201.815045 114.950452 
L 193.294884 114.950452 
z
" style="fill:#5d80b4;opacity:0.4;stroke:#000000;stroke-linejoin:miter;"/>
   </g>
   <g id="patch_19">
    <path clip-path="url(#pa3020e783c)" d="M 201.815045 259.885125 
L 210.335205 259.885125 
L 210.335205 169.849949 
L 201.815045 169.849949 
z
" style="fill:#5d80b4;opacity:0.4;stroke:#000000;stroke-linejoin:miter;"/>
   </g>
   <g id="patch_20">
    <path clip-path="url(#pa3020e783c)" d="M 210.335205 259.885125 
L 218.855365 259.885125 
L 218.855365 172.045929 
L 210.335205 172.045929 
z
" style="fill:#5d80b4;opacity:0.4;stroke:#000000;stroke-linejoin:miter;"/>
   </g>
   <g id="patch_21">
    <path clip-path="url(#pa3020e783c)" d="M 218.855365 259.885125 
L 227.375525 259.885125 
L 227.375525 136.910251 
L 218.855365 136.910251 
z
" style="fill:#5d80b4;opacity:0.4;stroke:#000000;stroke-linejoin:miter;"/>
   </g>
   <g id="patch_22">
    <path clip-path="url(#pa3020e783c)" d="M 227.375525 259.885125 
L 235.895685 259.885125 
L 235.895685 257.689145 
L 227.375525 257.689145 
z
" style="fill:#5d80b4;opacity:0.4;stroke:#000000;stroke-linejoin:miter;"/>
   </g>
   <g id="patch_23">
    <path clip-path="url(#pa3020e783c)" d="M 235.895685 259.885125 
L 244.415845 259.885125 
L 244.415845 147.89015 
L 235.895685 147.89015 
z
" style="fill:#5d80b4;opacity:0.4;stroke:#000000;stroke-linejoin:miter;"/>
   </g>
   <g id="patch_24">
    <path clip-path="url(#pa3020e783c)" d="M 244.415845 259.885125 
L 252.936006 259.885125 
L 252.936006 220.357487 
L 244.415845 220.357487 
z
" style="fill:#5d80b4;opacity:0.4;stroke:#000000;stroke-linejoin:miter;"/>
   </g>
   <g id="patch_25">
    <path clip-path="url(#pa3020e783c)" d="M 252.936006 259.885125 
L 261.456166 259.885125 
L 261.456166 215.965527 
L 252.936006 215.965527 
z
" style="fill:#5d80b4;opacity:0.4;stroke:#000000;stroke-linejoin:miter;"/>
   </g>
   <g id="patch_26">
    <path clip-path="url(#pa3020e783c)" d="M 261.456166 259.885125 
L 269.976326 259.885125 
L 269.976326 176.437889 
L 261.456166 176.437889 
z
" style="fill:#5d80b4;opacity:0.4;stroke:#000000;stroke-linejoin:miter;"/>
   </g>
   <g id="patch_27">
    <path clip-path="url(#pa3020e783c)" d="M 269.976326 259.885125 
L 278.496486 259.885125 
L 278.496486 255.493165 
L 269.976326 255.493165 
z
" style="fill:#5d80b4;opacity:0.4;stroke:#000000;stroke-linejoin:miter;"/>
   </g>
   <g id="patch_28">
    <path clip-path="url(#pa3020e783c)" d="M 278.496486 259.885125 
L 287.016646 259.885125 
L 287.016646 202.789648 
L 278.496486 202.789648 
z
" style="fill:#5d80b4;opacity:0.4;stroke:#000000;stroke-linejoin:miter;"/>
   </g>
   <g id="patch_29">
    <path clip-path="url(#pa3020e783c)" d="M 287.016646 259.885125 
L 295.536806 259.885125 
L 295.536806 224.749447 
L 287.016646 224.749447 
z
" style="fill:#5d80b4;opacity:0.4;stroke:#000000;stroke-linejoin:miter;"/>
   </g>
   <g id="patch_30">
    <path clip-path="url(#pa3020e783c)" d="M 295.536806 259.885125 
L 304.056967 259.885125 
L 304.056967 244.513266 
L 295.536806 244.513266 
z
" style="fill:#5d80b4;opacity:0.4;stroke:#000000;stroke-linejoin:miter;"/>
   </g>
   <g id="patch_31">
    <path clip-path="url(#pa3020e783c)" d="M 304.056967 259.885125 
L 312.577127 259.885125 
L 312.577127 240.121306 
L 304.056967 240.121306 
z
" style="fill:#5d80b4;opacity:0.4;stroke:#000000;stroke-linejoin:miter;"/>
   </g>
   <g id="patch_32">
    <path clip-path="url(#pa3020e783c)" d="M 312.577127 259.885125 
L 321.097287 259.885125 
L 321.097287 259.885125 
L 312.577127 259.885125 
z
" style="fill:#5d80b4;opacity:0.4;stroke:#000000;stroke-linejoin:miter;"/>
   </g>
   <g id="patch_33">
    <path clip-path="url(#pa3020e783c)" d="M 321.097287 259.885125 
L 329.617447 259.885125 
L 329.617447 224.749447 
L 321.097287 224.749447 
z
" style="fill:#5d80b4;opacity:0.4;stroke:#000000;stroke-linejoin:miter;"/>
   </g>
   <g id="patch_34">
    <path clip-path="url(#pa3020e783c)" d="M 329.617447 259.885125 
L 338.137607 259.885125 
L 338.137607 259.885125 
L 329.617447 259.885125 
z
" style="fill:#5d80b4;opacity:0.4;stroke:#000000;stroke-linejoin:miter;"/>
   </g>
   <g id="patch_35">
    <path clip-path="url(#pa3020e783c)" d="M 338.137607 259.885125 
L 346.657767 259.885125 
L 346.657767 240.121306 
L 338.137607 240.121306 
z
" style="fill:#5d80b4;opacity:0.4;stroke:#000000;stroke-linejoin:miter;"/>
   </g>
   <g id="patch_36">
    <path clip-path="url(#pa3020e783c)" d="M 346.657767 259.885125 
L 355.177928 259.885125 
L 355.177928 259.885125 
L 346.657767 259.885125 
z
" style="fill:#5d80b4;opacity:0.4;stroke:#000000;stroke-linejoin:miter;"/>
   </g>
   <g id="patch_37">
    <path clip-path="url(#pa3020e783c)" d="M 355.177928 259.885125 
L 363.698088 259.885125 
L 363.698088 259.885125 
L 355.177928 259.885125 
z
" style="fill:#5d80b4;opacity:0.4;stroke:#000000;stroke-linejoin:miter;"/>
   </g>
   <g id="patch_38">
    <path clip-path="url(#pa3020e783c)" d="M 363.698088 259.885125 
L 372.218248 259.885125 
L 372.218248 233.533366 
L 363.698088 233.533366 
z
" style="fill:#5d80b4;opacity:0.4;stroke:#000000;stroke-linejoin:miter;"/>
   </g>
   <g id="patch_39">
    <path clip-path="url(#pa3020e783c)" d="M 372.218248 259.885125 
L 380.738408 259.885125 
L 380.738408 259.885125 
L 372.218248 259.885125 
z
" style="fill:#5d80b4;opacity:0.4;stroke:#000000;stroke-linejoin:miter;"/>
   </g>
   <g id="patch_40">
    <path clip-path="url(#pa3020e783c)" d="M 380.738408 259.885125 
L 389.258568 259.885125 
L 389.258568 248.905226 
L 380.738408 248.905226 
z
" style="fill:#5d80b4;opacity:0.4;stroke:#000000;stroke-linejoin:miter;"/>
   </g>
   <g id="patch_41">
    <path clip-path="url(#pa3020e783c)" d="M 389.258568 259.885125 
L 397.778729 259.885125 
L 397.778729 259.885125 
L 389.258568 259.885125 
z
" style="fill:#5d80b4;opacity:0.4;stroke:#000000;stroke-linejoin:miter;"/>
   </g>
   <g id="patch_42">
    <path clip-path="url(#pa3020e783c)" d="M 397.778729 259.885125 
L 406.298889 259.885125 
L 406.298889 255.493165 
L 397.778729 255.493165 
z
" style="fill:#5d80b4;opacity:0.4;stroke:#000000;stroke-linejoin:miter;"/>
   </g>
   <g id="patch_43">
    <path clip-path="url(#pa3020e783c)" d="M 406.298889 259.885125 
L 414.819049 259.885125 
L 414.819049 246.709246 
L 406.298889 246.709246 
z
" style="fill:#5d80b4;opacity:0.4;stroke:#000000;stroke-linejoin:miter;"/>
   </g>
   <g id="patch_44">
    <path clip-path="url(#pa3020e783c)" d="M 414.819049 259.885125 
L 423.339209 259.885125 
L 423.339209 259.885125 
L 414.819049 259.885125 
z
" style="fill:#5d80b4;opacity:0.4;stroke:#000000;stroke-linejoin:miter;"/>
   </g>
   <g id="patch_45">
    <path clip-path="url(#pa3020e783c)" d="M 423.339209 259.885125 
L 431.859369 259.885125 
L 431.859369 255.493165 
L 423.339209 255.493165 
z
" style="fill:#5d80b4;opacity:0.4;stroke:#000000;stroke-linejoin:miter;"/>
   </g>
   <g id="patch_46">
    <path clip-path="url(#pa3020e783c)" d="M 431.859369 259.885125 
L 440.379529 259.885125 
L 440.379529 259.885125 
L 431.859369 259.885125 
z
" style="fill:#5d80b4;opacity:0.4;stroke:#000000;stroke-linejoin:miter;"/>
   </g>
   <g id="patch_47">
    <path clip-path="url(#pa3020e783c)" d="M 440.379529 259.885125 
L 448.89969 259.885125 
L 448.89969 259.885125 
L 440.379529 259.885125 
z
" style="fill:#5d80b4;opacity:0.4;stroke:#000000;stroke-linejoin:miter;"/>
   </g>
   <g id="patch_48">
    <path clip-path="url(#pa3020e783c)" d="M 448.89969 259.885125 
L 457.41985 259.885125 
L 457.41985 257.689145 
L 448.89969 257.689145 
z
" style="fill:#5d80b4;opacity:0.4;stroke:#000000;stroke-linejoin:miter;"/>
   </g>
   <g id="patch_49">
    <path clip-path="url(#pa3020e783c)" d="M 457.41985 259.885125 
L 465.94001 259.885125 
L 465.94001 259.885125 
L 457.41985 259.885125 
z
" style="fill:#5d80b4;opacity:0.4;stroke:#000000;stroke-linejoin:miter;"/>
   </g>
   <g id="patch_50">
    <path clip-path="url(#pa3020e783c)" d="M 465.94001 259.885125 
L 474.46017 259.885125 
L 474.46017 259.885125 
L 465.94001 259.885125 
z
" style="fill:#5d80b4;opacity:0.4;stroke:#000000;stroke-linejoin:miter;"/>
   </g>
   <g id="patch_51">
    <path clip-path="url(#pa3020e783c)" d="M 474.46017 259.885125 
L 482.98033 259.885125 
L 482.98033 259.885125 
L 474.46017 259.885125 
z
" style="fill:#5d80b4;opacity:0.4;stroke:#000000;stroke-linejoin:miter;"/>
   </g>
   <g id="patch_52">
    <path clip-path="url(#pa3020e783c)" d="M 482.98033 259.885125 
L 491.50049 259.885125 
L 491.50049 257.689145 
L 482.98033 257.689145 
z
" style="fill:#5d80b4;opacity:0.4;stroke:#000000;stroke-linejoin:miter;"/>
   </g>
   <g id="patch_53">
    <path clip-path="url(#pa3020e783c)" d="M 65.492482 259.885125 
L 73.172497 259.885125 
L 73.172497 202.789648 
L 65.492482 202.789648 
z
" style="fill:#8fb03e;opacity:0.4;stroke:#000000;stroke-linejoin:miter;"/>
   </g>
   <g id="patch_54">
    <path clip-path="url(#pa3020e783c)" d="M 73.172497 259.885125 
L 80.852513 259.885125 
L 80.852513 248.905226 
L 73.172497 248.905226 
z
" style="fill:#8fb03e;opacity:0.4;stroke:#000000;stroke-linejoin:miter;"/>
   </g>
   <g id="patch_55">
    <path clip-path="url(#pa3020e783c)" d="M 80.852513 259.885125 
L 88.532529 259.885125 
L 88.532529 259.885125 
L 80.852513 259.885125 
z
" style="fill:#8fb03e;opacity:0.4;stroke:#000000;stroke-linejoin:miter;"/>
   </g>
   <g id="patch_56">
    <path clip-path="url(#pa3020e783c)" d="M 88.532529 259.885125 
L 96.212545 259.885125 
L 96.212545 259.885125 
L 88.532529 259.885125 
z
" style="fill:#8fb03e;opacity:0.4;stroke:#000000;stroke-linejoin:miter;"/>
   </g>
   <g id="patch_57">
    <path clip-path="url(#pa3020e783c)" d="M 96.212545 259.885125 
L 103.89256 259.885125 
L 103.89256 229.141406 
L 96.212545 229.141406 
z
" style="fill:#8fb03e;opacity:0.4;stroke:#000000;stroke-linejoin:miter;"/>
   </g>
   <g id="patch_58">
    <path clip-path="url(#pa3020e783c)" d="M 103.89256 259.885125 
L 111.572576 259.885125 
L 111.572576 147.89015 
L 103.89256 147.89015 
z
" style="fill:#8fb03e;opacity:0.4;stroke:#000000;stroke-linejoin:miter;"/>
   </g>
   <g id="patch_59">
    <path clip-path="url(#pa3020e783c)" d="M 111.572576 259.885125 
L 119.252592 259.885125 
L 119.252592 97.382613 
L 111.572576 97.382613 
z
" style="fill:#8fb03e;opacity:0.4;stroke:#000000;stroke-linejoin:miter;"/>
   </g>
   <g id="patch_60">
    <path clip-path="url(#pa3020e783c)" d="M 119.252592 259.885125 
L 126.932607 259.885125 
L 126.932607 253.297185 
L 119.252592 253.297185 
z
" style="fill:#8fb03e;opacity:0.4;stroke:#000000;stroke-linejoin:miter;"/>
   </g>
   <g id="patch_61">
    <path clip-path="url(#pa3020e783c)" d="M 126.932607 259.885125 
L 134.612623 259.885125 
L 134.612623 242.317286 
L 126.932607 242.317286 
z
" style="fill:#8fb03e;opacity:0.4;stroke:#000000;stroke-linejoin:miter;"/>
   </g>
   <g id="patch_62">
    <path clip-path="url(#pa3020e783c)" d="M 134.612623 259.885125 
L 142.292639 259.885125 
L 142.292639 183.025829 
L 134.612623 183.025829 
z
" style="fill:#8fb03e;opacity:0.4;stroke:#000000;stroke-linejoin:miter;"/>
   </g>
   <g id="patch_63">
    <path clip-path="url(#pa3020e783c)" d="M 142.292639 259.885125 
L 149.972654 259.885125 
L 149.972654 82.010754 
L 142.292639 82.010754 
z
" style="fill:#8fb03e;opacity:0.4;stroke:#000000;stroke-linejoin:miter;"/>
   </g>
   <g id="patch_64">
    <path clip-path="url(#pa3020e783c)" d="M 149.972654 259.885125 
L 157.65267 259.885125 
L 157.65267 79.814774 
L 149.972654 79.814774 
z
" style="fill:#8fb03e;opacity:0.4;stroke:#000000;stroke-linejoin:miter;"/>
   </g>
   <g id="patch_65">
    <path clip-path="url(#pa3020e783c)" d="M 157.65267 259.885125 
L 165.332686 259.885125 
L 165.332686 187.417789 
L 157.65267 187.417789 
z
" style="fill:#8fb03e;opacity:0.4;stroke:#000000;stroke-linejoin:miter;"/>
   </g>
   <g id="patch_66">
    <path clip-path="url(#pa3020e783c)" d="M 165.332686 259.885125 
L 173.012701 259.885125 
L 173.012701 200.593668 
L 165.332686 200.593668 
z
" style="fill:#8fb03e;opacity:0.4;stroke:#000000;stroke-linejoin:miter;"/>
   </g>
   <g id="patch_67">
    <path clip-path="url(#pa3020e783c)" d="M 173.012701 259.885125 
L 180.692717 259.885125 
L 180.692717 141.302211 
L 173.012701 141.302211 
z
" style="fill:#8fb03e;opacity:0.4;stroke:#000000;stroke-linejoin:miter;"/>
   </g>
   <g id="patch_68">
    <path clip-path="url(#pa3020e783c)" d="M 180.692717 259.885125 
L 188.372733 259.885125 
L 188.372733 108.362512 
L 180.692717 108.362512 
z
" style="fill:#8fb03e;opacity:0.4;stroke:#000000;stroke-linejoin:miter;"/>
   </g>
   <g id="patch_69">
    <path clip-path="url(#pa3020e783c)" d="M 188.372733 259.885125 
L 196.052748 259.885125 
L 196.052748 257.689145 
L 188.372733 257.689145 
z
" style="fill:#8fb03e;opacity:0.4;stroke:#000000;stroke-linejoin:miter;"/>
   </g>
   <g id="patch_70">
    <path clip-path="url(#pa3020e783c)" d="M 196.052748 259.885125 
L 203.732764 259.885125 
L 203.732764 139.106231 
L 196.052748 139.106231 
z
" style="fill:#8fb03e;opacity:0.4;stroke:#000000;stroke-linejoin:miter;"/>
   </g>
   <g id="patch_71">
    <path clip-path="url(#pa3020e783c)" d="M 203.732764 259.885125 
L 211.41278 259.885125 
L 211.41278 185.221809 
L 203.732764 185.221809 
z
" style="fill:#8fb03e;opacity:0.4;stroke:#000000;stroke-linejoin:miter;"/>
   </g>
   <g id="patch_72">
    <path clip-path="url(#pa3020e783c)" d="M 211.41278 259.885125 
L 219.092796 259.885125 
L 219.092796 152.28211 
L 211.41278 152.28211 
z
" style="fill:#8fb03e;opacity:0.4;stroke:#000000;stroke-linejoin:miter;"/>
   </g>
   <g id="patch_73">
    <path clip-path="url(#pa3020e783c)" d="M 219.092796 259.885125 
L 226.772811 259.885125 
L 226.772811 246.709246 
L 219.092796 246.709246 
z
" style="fill:#8fb03e;opacity:0.4;stroke:#000000;stroke-linejoin:miter;"/>
   </g>
   <g id="patch_74">
    <path clip-path="url(#pa3020e783c)" d="M 226.772811 259.885125 
L 234.452827 259.885125 
L 234.452827 147.89015 
L 226.772811 147.89015 
z
" style="fill:#8fb03e;opacity:0.4;stroke:#000000;stroke-linejoin:miter;"/>
   </g>
   <g id="patch_75">
    <path clip-path="url(#pa3020e783c)" d="M 234.452827 259.885125 
L 242.132843 259.885125 
L 242.132843 134.714271 
L 234.452827 134.714271 
z
" style="fill:#8fb03e;opacity:0.4;stroke:#000000;stroke-linejoin:miter;"/>
   </g>
   <g id="patch_76">
    <path clip-path="url(#pa3020e783c)" d="M 242.132843 259.885125 
L 249.812858 259.885125 
L 249.812858 257.689145 
L 242.132843 257.689145 
z
" style="fill:#8fb03e;opacity:0.4;stroke:#000000;stroke-linejoin:miter;"/>
   </g>
   <g id="patch_77">
    <path clip-path="url(#pa3020e783c)" d="M 249.812858 259.885125 
L 257.492874 259.885125 
L 257.492874 196.201708 
L 249.812858 196.201708 
z
" style="fill:#8fb03e;opacity:0.4;stroke:#000000;stroke-linejoin:miter;"/>
   </g>
   <g id="patch_78">
    <path clip-path="url(#pa3020e783c)" d="M 257.492874 259.885125 
L 265.17289 259.885125 
L 265.17289 257.689145 
L 257.492874 257.689145 
z
" style="fill:#8fb03e;opacity:0.4;stroke:#000000;stroke-linejoin:miter;"/>
   </g>
   <g id="patch_79">
    <path clip-path="url(#pa3020e783c)" d="M 265.17289 259.885125 
L 272.852905 259.885125 
L 272.852905 180.829849 
L 265.17289 180.829849 
z
" style="fill:#8fb03e;opacity:0.4;stroke:#000000;stroke-linejoin:miter;"/>
   </g>
   <g id="patch_80">
    <path clip-path="url(#pa3020e783c)" d="M 272.852905 259.885125 
L 280.532921 259.885125 
L 280.532921 233.533366 
L 272.852905 233.533366 
z
" style="fill:#8fb03e;opacity:0.4;stroke:#000000;stroke-linejoin:miter;"/>
   </g>
   <g id="patch_81">
    <path clip-path="url(#pa3020e783c)" d="M 280.532921 259.885125 
L 288.212937 259.885125 
L 288.212937 248.905226 
L 280.532921 248.905226 
z
" style="fill:#8fb03e;opacity:0.4;stroke:#000000;stroke-linejoin:miter;"/>
   </g>
   <g id="patch_82">
    <path clip-path="url(#pa3020e783c)" d="M 288.212937 259.885125 
L 295.892952 259.885125 
L 295.892952 204.985628 
L 288.212937 204.985628 
z
" style="fill:#8fb03e;opacity:0.4;stroke:#000000;stroke-linejoin:miter;"/>
   </g>
   <g id="patch_83">
    <path clip-path="url(#pa3020e783c)" d="M 295.892952 259.885125 
L 303.572968 259.885125 
L 303.572968 244.513266 
L 295.892952 244.513266 
z
" style="fill:#8fb03e;opacity:0.4;stroke:#000000;stroke-linejoin:miter;"/>
   </g>
   <g id="patch_84">
    <path clip-path="url(#pa3020e783c)" d="M 303.572968 259.885125 
L 311.252984 259.885125 
L 311.252984 226.945427 
L 303.572968 226.945427 
z
" style="fill:#8fb03e;opacity:0.4;stroke:#000000;stroke-linejoin:miter;"/>
   </g>
   <g id="patch_85">
    <path clip-path="url(#pa3020e783c)" d="M 311.252984 259.885125 
L 318.932999 259.885125 
L 318.932999 259.885125 
L 311.252984 259.885125 
z
" style="fill:#8fb03e;opacity:0.4;stroke:#000000;stroke-linejoin:miter;"/>
   </g>
   <g id="patch_86">
    <path clip-path="url(#pa3020e783c)" d="M 318.932999 259.885125 
L 326.613015 259.885125 
L 326.613015 235.729346 
L 318.932999 235.729346 
z
" style="fill:#8fb03e;opacity:0.4;stroke:#000000;stroke-linejoin:miter;"/>
   </g>
   <g id="patch_87">
    <path clip-path="url(#pa3020e783c)" d="M 326.613015 259.885125 
L 334.293031 259.885125 
L 334.293031 248.905226 
L 326.613015 248.905226 
z
" style="fill:#8fb03e;opacity:0.4;stroke:#000000;stroke-linejoin:miter;"/>
   </g>
   <g id="patch_88">
    <path clip-path="url(#pa3020e783c)" d="M 334.293031 259.885125 
L 341.973046 259.885125 
L 341.973046 259.885125 
L 334.293031 259.885125 
z
" style="fill:#8fb03e;opacity:0.4;stroke:#000000;stroke-linejoin:miter;"/>
   </g>
   <g id="patch_89">
    <path clip-path="url(#pa3020e783c)" d="M 341.973046 259.885125 
L 349.653062 259.885125 
L 349.653062 226.945427 
L 341.973046 226.945427 
z
" style="fill:#8fb03e;opacity:0.4;stroke:#000000;stroke-linejoin:miter;"/>
   </g>
   <g id="patch_90">
    <path clip-path="url(#pa3020e783c)" d="M 349.653062 259.885125 
L 357.333078 259.885125 
L 357.333078 259.885125 
L 349.653062 259.885125 
z
" style="fill:#8fb03e;opacity:0.4;stroke:#000000;stroke-linejoin:miter;"/>
   </g>
   <g id="patch_91">
    <path clip-path="url(#pa3020e783c)" d="M 357.333078 259.885125 
L 365.013094 259.885125 
L 365.013094 253.297185 
L 357.333078 253.297185 
z
" style="fill:#8fb03e;opacity:0.4;stroke:#000000;stroke-linejoin:miter;"/>
   </g>
   <g id="patch_92">
    <path clip-path="url(#pa3020e783c)" d="M 365.013094 259.885125 
L 372.693109 259.885125 
L 372.693109 251.101205 
L 365.013094 251.101205 
z
" style="fill:#8fb03e;opacity:0.4;stroke:#000000;stroke-linejoin:miter;"/>
   </g>
   <g id="patch_93">
    <path clip-path="url(#pa3020e783c)" d="M 372.693109 259.885125 
L 380.373125 259.885125 
L 380.373125 259.885125 
L 372.693109 259.885125 
z
" style="fill:#8fb03e;opacity:0.4;stroke:#000000;stroke-linejoin:miter;"/>
   </g>
   <g id="patch_94">
    <path clip-path="url(#pa3020e783c)" d="M 380.373125 259.885125 
L 388.053141 259.885125 
L 388.053141 246.709246 
L 380.373125 246.709246 
z
" style="fill:#8fb03e;opacity:0.4;stroke:#000000;stroke-linejoin:miter;"/>
   </g>
   <g id="patch_95">
    <path clip-path="url(#pa3020e783c)" d="M 388.053141 259.885125 
L 395.733156 259.885125 
L 395.733156 259.885125 
L 388.053141 259.885125 
z
" style="fill:#8fb03e;opacity:0.4;stroke:#000000;stroke-linejoin:miter;"/>
   </g>
   <g id="patch_96">
    <path clip-path="url(#pa3020e783c)" d="M 395.733156 259.885125 
L 403.413172 259.885125 
L 403.413172 255.493165 
L 395.733156 255.493165 
z
" style="fill:#8fb03e;opacity:0.4;stroke:#000000;stroke-linejoin:miter;"/>
   </g>
   <g id="patch_97">
    <path clip-path="url(#pa3020e783c)" d="M 403.413172 259.885125 
L 411.093188 259.885125 
L 411.093188 255.493165 
L 403.413172 255.493165 
z
" style="fill:#8fb03e;opacity:0.4;stroke:#000000;stroke-linejoin:miter;"/>
   </g>
   <g id="patch_98">
    <path clip-path="url(#pa3020e783c)" d="M 411.093188 259.885125 
L 418.773203 259.885125 
L 418.773203 259.885125 
L 411.093188 259.885125 
z
" style="fill:#8fb03e;opacity:0.4;stroke:#000000;stroke-linejoin:miter;"/>
   </g>
   <g id="patch_99">
    <path clip-path="url(#pa3020e783c)" d="M 418.773203 259.885125 
L 426.453219 259.885125 
L 426.453219 257.689145 
L 418.773203 257.689145 
z
" style="fill:#8fb03e;opacity:0.4;stroke:#000000;stroke-linejoin:miter;"/>
   </g>
   <g id="patch_100">
    <path clip-path="url(#pa3020e783c)" d="M 426.453219 259.885125 
L 434.133235 259.885125 
L 434.133235 257.689145 
L 426.453219 257.689145 
z
" style="fill:#8fb03e;opacity:0.4;stroke:#000000;stroke-linejoin:miter;"/>
   </g>
   <g id="patch_101">
    <path clip-path="url(#pa3020e783c)" d="M 434.133235 259.885125 
L 441.81325 259.885125 
L 441.81325 259.885125 
L 434.133235 259.885125 
z
" style="fill:#8fb03e;opacity:0.4;stroke:#000000;stroke-linejoin:miter;"/>
   </g>
   <g id="patch_102">
    <path clip-path="url(#pa3020e783c)" d="M 441.81325 259.885125 
L 449.493266 259.885125 
L 449.493266 251.101205 
L 441.81325 251.101205 
z
" style="fill:#8fb03e;opacity:0.4;stroke:#000000;stroke-linejoin:miter;"/>
   </g>
   <g id="line2d_1">
    <path clip-path="url(#pa3020e783c)" d="M 133.414669 259.885125 
L 133.414669 33.26 
" style="fill:none;stroke:#eb6231;stroke-linecap:square;stroke-width:3.0;"/>
   </g>
   <g id="patch_103">
    <path d="M 52.686563 33.26 
L 517.512656 33.26 
" style="fill:none;stroke:#000000;stroke-linecap:square;stroke-linejoin:miter;"/>
   </g>
   <g id="patch_104">
    <path d="M 517.512656 259.885125 
L 517.512656 33.26 
" style="fill:none;stroke:#000000;stroke-linecap:square;stroke-linejoin:miter;"/>
   </g>
   <g id="patch_105">
    <path d="M 52.686563 259.885125 
L 517.512656 259.885125 
" style="fill:none;stroke:#000000;stroke-linecap:square;stroke-linejoin:miter;"/>
   </g>
   <g id="patch_106">
    <path d="M 52.686563 259.885125 
L 52.686563 33.26 
" style="fill:none;stroke:#000000;stroke-linecap:square;stroke-linejoin:miter;"/>
   </g>
   <g id="matplotlib.axis_1">
    <g id="xtick_1">
     <g id="line2d_2">
      <defs>
       <path d="M 0 0 
L 0 -4 
" id="meacfe6dcda" style="stroke:#000000;stroke-width:0.5;"/>
      </defs>
      <g>
       <use style="stroke:#000000;stroke-width:0.5;" x="52.6865625" xlink:href="#meacfe6dcda" y="259.885125"/>
      </g>
     </g>
     <g id="line2d_3">
      <defs>
       <path d="M 0 0 
L 0 4 
" id="mf802347d13" style="stroke:#000000;stroke-width:0.5;"/>
      </defs>
      <g>
       <use style="stroke:#000000;stroke-width:0.5;" x="52.6865625" xlink:href="#mf802347d13" y="33.26"/>
      </g>
     </g>
     <g id="text_1">
      <!-- 0.8 -->
      <defs>
       <path d="M 31.78125 34.625 
Q 24.75 34.625 20.71875 30.859375 
Q 16.703125 27.09375 16.703125 20.515625 
Q 16.703125 13.921875 20.71875 10.15625 
Q 24.75 6.390625 31.78125 6.390625 
Q 38.8125 6.390625 42.859375 10.171875 
Q 46.921875 13.96875 46.921875 20.515625 
Q 46.921875 27.09375 42.890625 30.859375 
Q 38.875 34.625 31.78125 34.625 
M 21.921875 38.8125 
Q 15.578125 40.375 12.03125 44.71875 
Q 8.5 49.078125 8.5 55.328125 
Q 8.5 64.0625 14.71875 69.140625 
Q 20.953125 74.21875 31.78125 74.21875 
Q 42.671875 74.21875 48.875 69.140625 
Q 55.078125 64.0625 55.078125 55.328125 
Q 55.078125 49.078125 51.53125 44.71875 
Q 48 40.375 41.703125 38.8125 
Q 48.828125 37.15625 52.796875 32.3125 
Q 56.78125 27.484375 56.78125 20.515625 
Q 56.78125 9.90625 50.3125 4.234375 
Q 43.84375 -1.421875 31.78125 -1.421875 
Q 19.734375 -1.421875 13.25 4.234375 
Q 6.78125 9.90625 6.78125 20.515625 
Q 6.78125 27.484375 10.78125 32.3125 
Q 14.796875 37.15625 21.921875 38.8125 
M 18.3125 54.390625 
Q 18.3125 48.734375 21.84375 45.5625 
Q 25.390625 42.390625 31.78125 42.390625 
Q 38.140625 42.390625 41.71875 45.5625 
Q 45.3125 48.734375 45.3125 54.390625 
Q 45.3125 60.0625 41.71875 63.234375 
Q 38.140625 66.40625 31.78125 66.40625 
Q 25.390625 66.40625 21.84375 63.234375 
Q 18.3125 60.0625 18.3125 54.390625 
" id="BitstreamVeraSans-Roman-38"/>
       <path d="M 10.6875 12.40625 
L 21 12.40625 
L 21 0 
L 10.6875 0 
z
" id="BitstreamVeraSans-Roman-2e"/>
       <path d="M 31.78125 66.40625 
Q 24.171875 66.40625 20.328125 58.90625 
Q 16.5 51.421875 16.5 36.375 
Q 16.5 21.390625 20.328125 13.890625 
Q 24.171875 6.390625 31.78125 6.390625 
Q 39.453125 6.390625 43.28125 13.890625 
Q 47.125 21.390625 47.125 36.375 
Q 47.125 51.421875 43.28125 58.90625 
Q 39.453125 66.40625 31.78125 66.40625 
M 31.78125 74.21875 
Q 44.046875 74.21875 50.515625 64.515625 
Q 56.984375 54.828125 56.984375 36.375 
Q 56.984375 17.96875 50.515625 8.265625 
Q 44.046875 -1.421875 31.78125 -1.421875 
Q 19.53125 -1.421875 13.0625 8.265625 
Q 6.59375 17.96875 6.59375 36.375 
Q 6.59375 54.828125 13.0625 64.515625 
Q 19.53125 74.21875 31.78125 74.21875 
" id="BitstreamVeraSans-Roman-30"/>
      </defs>
      <g transform="translate(43.1446875 273.00325)scale(0.12 -0.12)">
       <use xlink:href="#BitstreamVeraSans-Roman-30"/>
       <use x="63.623046875" xlink:href="#BitstreamVeraSans-Roman-2e"/>
       <use x="95.41015625" xlink:href="#BitstreamVeraSans-Roman-38"/>
      </g>
     </g>
    </g>
    <g id="xtick_2">
     <g id="line2d_4">
      <g>
       <use style="stroke:#000000;stroke-width:0.5;" x="119.090290179" xlink:href="#meacfe6dcda" y="259.885125"/>
      </g>
     </g>
     <g id="line2d_5">
      <g>
       <use style="stroke:#000000;stroke-width:0.5;" x="119.090290179" xlink:href="#mf802347d13" y="33.26"/>
      </g>
     </g>
     <g id="text_2">
      <!-- 1.0 -->
      <defs>
       <path d="M 12.40625 8.296875 
L 28.515625 8.296875 
L 28.515625 63.921875 
L 10.984375 60.40625 
L 10.984375 69.390625 
L 28.421875 72.90625 
L 38.28125 72.90625 
L 38.28125 8.296875 
L 54.390625 8.296875 
L 54.390625 0 
L 12.40625 0 
z
" id="BitstreamVeraSans-Roman-31"/>
      </defs>
      <g transform="translate(109.548415179 273.00325)scale(0.12 -0.12)">
       <use xlink:href="#BitstreamVeraSans-Roman-31"/>
       <use x="63.623046875" xlink:href="#BitstreamVeraSans-Roman-2e"/>
       <use x="95.41015625" xlink:href="#BitstreamVeraSans-Roman-30"/>
      </g>
     </g>
    </g>
    <g id="xtick_3">
     <g id="line2d_6">
      <g>
       <use style="stroke:#000000;stroke-width:0.5;" x="185.494017857" xlink:href="#meacfe6dcda" y="259.885125"/>
      </g>
     </g>
     <g id="line2d_7">
      <g>
       <use style="stroke:#000000;stroke-width:0.5;" x="185.494017857" xlink:href="#mf802347d13" y="33.26"/>
      </g>
     </g>
     <g id="text_3">
      <!-- 1.2 -->
      <defs>
       <path d="M 19.1875 8.296875 
L 53.609375 8.296875 
L 53.609375 0 
L 7.328125 0 
L 7.328125 8.296875 
Q 12.9375 14.109375 22.625 23.890625 
Q 32.328125 33.6875 34.8125 36.53125 
Q 39.546875 41.84375 41.421875 45.53125 
Q 43.3125 49.21875 43.3125 52.78125 
Q 43.3125 58.59375 39.234375 62.25 
Q 35.15625 65.921875 28.609375 65.921875 
Q 23.96875 65.921875 18.8125 64.3125 
Q 13.671875 62.703125 7.8125 59.421875 
L 7.8125 69.390625 
Q 13.765625 71.78125 18.9375 73 
Q 24.125 74.21875 28.421875 74.21875 
Q 39.75 74.21875 46.484375 68.546875 
Q 53.21875 62.890625 53.21875 53.421875 
Q 53.21875 48.921875 51.53125 44.890625 
Q 49.859375 40.875 45.40625 35.40625 
Q 44.1875 33.984375 37.640625 27.21875 
Q 31.109375 20.453125 19.1875 8.296875 
" id="BitstreamVeraSans-Roman-32"/>
      </defs>
      <g transform="translate(175.952142857 273.00325)scale(0.12 -0.12)">
       <use xlink:href="#BitstreamVeraSans-Roman-31"/>
       <use x="63.623046875" xlink:href="#BitstreamVeraSans-Roman-2e"/>
       <use x="95.41015625" xlink:href="#BitstreamVeraSans-Roman-32"/>
      </g>
     </g>
    </g>
    <g id="xtick_4">
     <g id="line2d_8">
      <g>
       <use style="stroke:#000000;stroke-width:0.5;" x="251.897745536" xlink:href="#meacfe6dcda" y="259.885125"/>
      </g>
     </g>
     <g id="line2d_9">
      <g>
       <use style="stroke:#000000;stroke-width:0.5;" x="251.897745536" xlink:href="#mf802347d13" y="33.26"/>
      </g>
     </g>
     <g id="text_4">
      <!-- 1.4 -->
      <defs>
       <path d="M 37.796875 64.3125 
L 12.890625 25.390625 
L 37.796875 25.390625 
z
M 35.203125 72.90625 
L 47.609375 72.90625 
L 47.609375 25.390625 
L 58.015625 25.390625 
L 58.015625 17.1875 
L 47.609375 17.1875 
L 47.609375 0 
L 37.796875 0 
L 37.796875 17.1875 
L 4.890625 17.1875 
L 4.890625 26.703125 
z
" id="BitstreamVeraSans-Roman-34"/>
      </defs>
      <g transform="translate(242.355870536 273.00325)scale(0.12 -0.12)">
       <use xlink:href="#BitstreamVeraSans-Roman-31"/>
       <use x="63.623046875" xlink:href="#BitstreamVeraSans-Roman-2e"/>
       <use x="95.41015625" xlink:href="#BitstreamVeraSans-Roman-34"/>
      </g>
     </g>
    </g>
    <g id="xtick_5">
     <g id="line2d_10">
      <g>
       <use style="stroke:#000000;stroke-width:0.5;" x="318.301473214" xlink:href="#meacfe6dcda" y="259.885125"/>
      </g>
     </g>
     <g id="line2d_11">
      <g>
       <use style="stroke:#000000;stroke-width:0.5;" x="318.301473214" xlink:href="#mf802347d13" y="33.26"/>
      </g>
     </g>
     <g id="text_5">
      <!-- 1.6 -->
      <defs>
       <path d="M 33.015625 40.375 
Q 26.375 40.375 22.484375 35.828125 
Q 18.609375 31.296875 18.609375 23.390625 
Q 18.609375 15.53125 22.484375 10.953125 
Q 26.375 6.390625 33.015625 6.390625 
Q 39.65625 6.390625 43.53125 10.953125 
Q 47.40625 15.53125 47.40625 23.390625 
Q 47.40625 31.296875 43.53125 35.828125 
Q 39.65625 40.375 33.015625 40.375 
M 52.59375 71.296875 
L 52.59375 62.3125 
Q 48.875 64.0625 45.09375 64.984375 
Q 41.3125 65.921875 37.59375 65.921875 
Q 27.828125 65.921875 22.671875 59.328125 
Q 17.53125 52.734375 16.796875 39.40625 
Q 19.671875 43.65625 24.015625 45.921875 
Q 28.375 48.1875 33.59375 48.1875 
Q 44.578125 48.1875 50.953125 41.515625 
Q 57.328125 34.859375 57.328125 23.390625 
Q 57.328125 12.15625 50.6875 5.359375 
Q 44.046875 -1.421875 33.015625 -1.421875 
Q 20.359375 -1.421875 13.671875 8.265625 
Q 6.984375 17.96875 6.984375 36.375 
Q 6.984375 53.65625 15.1875 63.9375 
Q 23.390625 74.21875 37.203125 74.21875 
Q 40.921875 74.21875 44.703125 73.484375 
Q 48.484375 72.75 52.59375 71.296875 
" id="BitstreamVeraSans-Roman-36"/>
      </defs>
      <g transform="translate(308.759598214 273.00325)scale(0.12 -0.12)">
       <use xlink:href="#BitstreamVeraSans-Roman-31"/>
       <use x="63.623046875" xlink:href="#BitstreamVeraSans-Roman-2e"/>
       <use x="95.41015625" xlink:href="#BitstreamVeraSans-Roman-36"/>
      </g>
     </g>
    </g>
    <g id="xtick_6">
     <g id="line2d_12">
      <g>
       <use style="stroke:#000000;stroke-width:0.5;" x="384.705200893" xlink:href="#meacfe6dcda" y="259.885125"/>
      </g>
     </g>
     <g id="line2d_13">
      <g>
       <use style="stroke:#000000;stroke-width:0.5;" x="384.705200893" xlink:href="#mf802347d13" y="33.26"/>
      </g>
     </g>
     <g id="text_6">
      <!-- 1.8 -->
      <g transform="translate(375.163325893 273.00325)scale(0.12 -0.12)">
       <use xlink:href="#BitstreamVeraSans-Roman-31"/>
       <use x="63.623046875" xlink:href="#BitstreamVeraSans-Roman-2e"/>
       <use x="95.41015625" xlink:href="#BitstreamVeraSans-Roman-38"/>
      </g>
     </g>
    </g>
    <g id="xtick_7">
     <g id="line2d_14">
      <g>
       <use style="stroke:#000000;stroke-width:0.5;" x="451.108928571" xlink:href="#meacfe6dcda" y="259.885125"/>
      </g>
     </g>
     <g id="line2d_15">
      <g>
       <use style="stroke:#000000;stroke-width:0.5;" x="451.108928571" xlink:href="#mf802347d13" y="33.26"/>
      </g>
     </g>
     <g id="text_7">
      <!-- 2.0 -->
      <g transform="translate(441.567053571 273.00325)scale(0.12 -0.12)">
       <use xlink:href="#BitstreamVeraSans-Roman-32"/>
       <use x="63.623046875" xlink:href="#BitstreamVeraSans-Roman-2e"/>
       <use x="95.41015625" xlink:href="#BitstreamVeraSans-Roman-30"/>
      </g>
     </g>
    </g>
    <g id="xtick_8">
     <g id="line2d_16">
      <g>
       <use style="stroke:#000000;stroke-width:0.5;" x="517.51265625" xlink:href="#meacfe6dcda" y="259.885125"/>
      </g>
     </g>
     <g id="line2d_17">
      <g>
       <use style="stroke:#000000;stroke-width:0.5;" x="517.51265625" xlink:href="#mf802347d13" y="33.26"/>
      </g>
     </g>
     <g id="text_8">
      <!-- 2.2 -->
      <g transform="translate(507.97078125 273.00325)scale(0.12 -0.12)">
       <use xlink:href="#BitstreamVeraSans-Roman-32"/>
       <use x="63.623046875" xlink:href="#BitstreamVeraSans-Roman-2e"/>
       <use x="95.41015625" xlink:href="#BitstreamVeraSans-Roman-32"/>
      </g>
     </g>
    </g>
    <g id="text_9">
     <!-- $\sigma^2/V_{A}$ -->
     <defs>
      <path d="M 18.703125 -1.125 
Q 14.265625 -1.125 10.8125 1 
Q 7.375 3.125 5.484375 6.734375 
Q 3.609375 10.359375 3.609375 14.703125 
Q 3.609375 19.34375 5.703125 24.46875 
Q 7.8125 29.59375 11.453125 33.84375 
Q 15.09375 38.09375 19.671875 40.59375 
Q 24.265625 43.109375 29.109375 43.109375 
L 54.296875 43.109375 
Q 55.328125 43.109375 56.046875 42.421875 
Q 56.78125 41.75 56.78125 40.578125 
Q 56.78125 39.109375 55.734375 38.015625 
Q 54.6875 36.921875 53.21875 36.921875 
L 41.015625 36.921875 
Q 43.890625 32.625 43.890625 26.515625 
Q 43.890625 21.484375 41.9375 16.59375 
Q 39.984375 11.71875 36.515625 7.6875 
Q 33.0625 3.65625 28.4375 1.265625 
Q 23.828125 -1.125 18.703125 -1.125 
M 18.796875 1.515625 
Q 24.265625 1.515625 28.484375 5.78125 
Q 32.71875 10.0625 34.953125 16.234375 
Q 37.203125 22.40625 37.203125 27.6875 
Q 37.203125 31.984375 34.828125 34.453125 
Q 32.46875 36.921875 28.21875 36.921875 
Q 22.40625 36.921875 18.328125 33.015625 
Q 14.265625 29.109375 12.234375 23.1875 
Q 10.203125 17.28125 10.203125 11.8125 
Q 10.203125 7.515625 12.46875 4.515625 
Q 14.75 1.515625 18.796875 1.515625 
" id="Cmmi10-be"/>
      <path d="M 4.984375 0 
L 4.984375 2.6875 
Q 4.984375 2.9375 5.171875 3.21875 
L 20.703125 20.40625 
Q 24.21875 24.21875 26.40625 26.796875 
Q 28.609375 29.390625 30.75 32.765625 
Q 32.90625 36.140625 34.15625 39.625 
Q 35.40625 43.109375 35.40625 47.015625 
Q 35.40625 51.125 33.890625 54.859375 
Q 32.375 58.59375 29.375 60.84375 
Q 26.375 63.09375 22.125 63.09375 
Q 17.78125 63.09375 14.3125 60.46875 
Q 10.84375 57.859375 9.421875 53.71875 
Q 9.8125 53.8125 10.5 53.8125 
Q 12.75 53.8125 14.328125 52.296875 
Q 15.921875 50.78125 15.921875 48.390625 
Q 15.921875 46.09375 14.328125 44.5 
Q 12.75 42.921875 10.5 42.921875 
Q 8.15625 42.921875 6.5625 44.546875 
Q 4.984375 46.1875 4.984375 48.390625 
Q 4.984375 52.15625 6.390625 55.4375 
Q 7.8125 58.734375 10.46875 61.296875 
Q 13.140625 63.875 16.484375 65.234375 
Q 19.828125 66.609375 23.578125 66.609375 
Q 29.296875 66.609375 34.21875 64.1875 
Q 39.15625 61.765625 42.03125 57.34375 
Q 44.921875 52.9375 44.921875 47.015625 
Q 44.921875 42.671875 43.015625 38.765625 
Q 41.109375 34.859375 38.125 31.65625 
Q 35.15625 28.46875 30.515625 24.40625 
Q 25.875 20.359375 24.421875 19 
L 13.09375 8.109375 
L 22.703125 8.109375 
Q 29.78125 8.109375 34.546875 8.21875 
Q 39.3125 8.34375 39.59375 8.59375 
Q 40.765625 9.859375 42 17.828125 
L 44.921875 17.828125 
L 42.09375 0 
z
" id="Cmr10-32"/>
      <path d="M 22.015625 -1.125 
L 14.015625 62.59375 
Q 13.28125 64.796875 6.5 64.796875 
Q 5.515625 64.796875 5.515625 66.109375 
Q 5.71875 67.1875 6 67.75 
Q 6.296875 68.3125 7.171875 68.3125 
L 31.59375 68.3125 
Q 32.125 68.3125 32.375 67.921875 
Q 32.625 67.53125 32.625 67 
Q 32.234375 64.796875 31.296875 64.796875 
Q 23.484375 64.796875 23 62.109375 
L 29.59375 9.8125 
L 60.40625 58.984375 
Q 61.28125 60.640625 61.28125 61.625 
Q 61.28125 63.375 59.6875 64.078125 
Q 58.109375 64.796875 56 64.796875 
Q 54.984375 64.796875 54.984375 66.109375 
Q 55.171875 66.890625 55.3125 67.328125 
Q 55.46875 67.78125 55.765625 68.046875 
Q 56.0625 68.3125 56.6875 68.3125 
L 75.984375 68.3125 
Q 76.90625 68.3125 76.90625 67 
Q 76.515625 64.796875 75.59375 64.796875 
Q 68.0625 64.796875 63.8125 58.203125 
Q 63.625 58.015625 63.484375 58.015625 
L 26.609375 -1.125 
Q 25.875 -2.203125 24.703125 -2.203125 
L 23.296875 -2.203125 
Q 22.171875 -2.203125 22.015625 -1.125 
" id="Cmmi10-56"/>
      <path d="M 5.609375 -23 
Q 5.609375 -22.703125 5.71875 -22.609375 
L 40.484375 73.78125 
Q 40.671875 74.359375 41.15625 74.671875 
Q 41.65625 75 42.28125 75 
Q 43.171875 75 43.71875 74.453125 
Q 44.28125 73.921875 44.28125 73 
L 44.28125 72.609375 
L 9.515625 -23.78125 
Q 8.9375 -25 7.625 -25 
Q 6.78125 -25 6.1875 -24.40625 
Q 5.609375 -23.828125 5.609375 -23 
" id="Cmmi10-3d"/>
      <path d="M 4.5 0 
Q 3.515625 0 3.515625 1.3125 
Q 3.90625 3.515625 4.78125 3.515625 
Q 8.84375 3.515625 11.796875 5.125 
Q 14.75 6.734375 16.890625 10.109375 
Q 17.09375 10.296875 17.09375 10.296875 
L 52.78125 70.515625 
Q 53.5625 71.578125 54.6875 71.578125 
L 56 71.578125 
Q 56.296875 71.578125 56.59375 71.453125 
Q 56.890625 71.34375 57.109375 71.0625 
Q 57.328125 70.796875 57.328125 70.515625 
L 63.375 5.90625 
Q 63.375 5.46875 63.8125 4.59375 
Q 64.796875 3.515625 71.296875 3.515625 
Q 72.3125 3.515625 72.3125 2.203125 
Q 71.96875 0.875 71.75 0.4375 
Q 71.53125 0 70.609375 0 
L 45.609375 0 
Q 44.671875 0 44.671875 1.3125 
Q 45.21875 3.515625 46 3.515625 
Q 53.90625 3.515625 54.390625 6.203125 
L 52.875 22.703125 
L 28.21875 22.703125 
L 20.21875 9.28125 
Q 19.484375 8.203125 19.484375 6.78125 
Q 19.484375 5.03125 21.171875 4.265625 
Q 22.859375 3.515625 24.90625 3.515625 
Q 25.875 3.515625 25.875 2.203125 
Q 25.53125 0.78125 25.328125 0.390625 
Q 25.140625 0 24.21875 0 
z
M 30.171875 26.21875 
L 52.484375 26.21875 
L 49.515625 58.59375 
z
" id="Cmmi10-41"/>
     </defs>
     <g transform="translate(274.219609375 287.298875)scale(0.08 -0.08)">
      <use transform="translate(0.0 0.109375)" xlink:href="#Cmmi10-be"/>
      <use transform="translate(63.156953125 38.3734375)scale(0.7)" xlink:href="#Cmr10-32"/>
      <use transform="translate(104.534296875 0.109375)" xlink:href="#Cmmi10-3d"/>
      <use transform="translate(154.534296875 0.109375)" xlink:href="#Cmmi10-56"/>
      <use transform="translate(212.835078125 -16.896874999999994)scale(0.7)" xlink:href="#Cmmi10-41"/>
     </g>
    </g>
   </g>
   <g id="matplotlib.axis_2">
    <g id="ytick_1">
     <g id="line2d_18">
      <defs>
       <path d="M 0 0 
L 4 0 
" id="mca1da92f7b" style="stroke:#000000;stroke-width:0.5;"/>
      </defs>
      <g>
       <use style="stroke:#000000;stroke-width:0.5;" x="52.6865625" xlink:href="#mca1da92f7b" y="259.885125"/>
      </g>
     </g>
     <g id="line2d_19">
      <defs>
       <path d="M 0 0 
L -4 0 
" id="md9057f5196" style="stroke:#000000;stroke-width:0.5;"/>
      </defs>
      <g>
       <use style="stroke:#000000;stroke-width:0.5;" x="517.51265625" xlink:href="#md9057f5196" y="259.885125"/>
      </g>
     </g>
     <g id="text_10">
      <!-- 0 -->
      <g transform="translate(41.0515625 263.196375)scale(0.12 -0.12)">
       <use xlink:href="#BitstreamVeraSans-Roman-30"/>
      </g>
     </g>
    </g>
    <g id="ytick_2">
     <g id="line2d_20">
      <g>
       <use style="stroke:#000000;stroke-width:0.5;" x="52.6865625" xlink:href="#mca1da92f7b" y="215.965527132"/>
      </g>
     </g>
     <g id="line2d_21">
      <g>
       <use style="stroke:#000000;stroke-width:0.5;" x="517.51265625" xlink:href="#md9057f5196" y="215.965527132"/>
      </g>
     </g>
     <g id="text_11">
      <!-- 20 -->
      <g transform="translate(33.4165625 219.276777132)scale(0.12 -0.12)">
       <use xlink:href="#BitstreamVeraSans-Roman-32"/>
       <use x="63.623046875" xlink:href="#BitstreamVeraSans-Roman-30"/>
      </g>
     </g>
    </g>
    <g id="ytick_3">
     <g id="line2d_22">
      <g>
       <use style="stroke:#000000;stroke-width:0.5;" x="52.6865625" xlink:href="#mca1da92f7b" y="172.045929264"/>
      </g>
     </g>
     <g id="line2d_23">
      <g>
       <use style="stroke:#000000;stroke-width:0.5;" x="517.51265625" xlink:href="#md9057f5196" y="172.045929264"/>
      </g>
     </g>
     <g id="text_12">
      <!-- 40 -->
      <g transform="translate(33.4165625 175.357179264)scale(0.12 -0.12)">
       <use xlink:href="#BitstreamVeraSans-Roman-34"/>
       <use x="63.623046875" xlink:href="#BitstreamVeraSans-Roman-30"/>
      </g>
     </g>
    </g>
    <g id="ytick_4">
     <g id="line2d_24">
      <g>
       <use style="stroke:#000000;stroke-width:0.5;" x="52.6865625" xlink:href="#mca1da92f7b" y="128.126331395"/>
      </g>
     </g>
     <g id="line2d_25">
      <g>
       <use style="stroke:#000000;stroke-width:0.5;" x="517.51265625" xlink:href="#md9057f5196" y="128.126331395"/>
      </g>
     </g>
     <g id="text_13">
      <!-- 60 -->
      <g transform="translate(33.4165625 131.437581395)scale(0.12 -0.12)">
       <use xlink:href="#BitstreamVeraSans-Roman-36"/>
       <use x="63.623046875" xlink:href="#BitstreamVeraSans-Roman-30"/>
      </g>
     </g>
    </g>
    <g id="ytick_5">
     <g id="line2d_26">
      <g>
       <use style="stroke:#000000;stroke-width:0.5;" x="52.6865625" xlink:href="#mca1da92f7b" y="84.2067335271"/>
      </g>
     </g>
     <g id="line2d_27">
      <g>
       <use style="stroke:#000000;stroke-width:0.5;" x="517.51265625" xlink:href="#md9057f5196" y="84.2067335271"/>
      </g>
     </g>
     <g id="text_14">
      <!-- 80 -->
      <g transform="translate(33.4165625 87.5179835271)scale(0.12 -0.12)">
       <use xlink:href="#BitstreamVeraSans-Roman-38"/>
       <use x="63.623046875" xlink:href="#BitstreamVeraSans-Roman-30"/>
      </g>
     </g>
    </g>
    <g id="ytick_6">
     <g id="line2d_28">
      <g>
       <use style="stroke:#000000;stroke-width:0.5;" x="52.6865625" xlink:href="#mca1da92f7b" y="40.2871356589"/>
      </g>
     </g>
     <g id="line2d_29">
      <g>
       <use style="stroke:#000000;stroke-width:0.5;" x="517.51265625" xlink:href="#md9057f5196" y="40.2871356589"/>
      </g>
     </g>
     <g id="text_15">
      <!-- 100 -->
      <g transform="translate(25.7815625 43.5983856589)scale(0.12 -0.12)">
       <use xlink:href="#BitstreamVeraSans-Roman-31"/>
       <use x="63.623046875" xlink:href="#BitstreamVeraSans-Roman-30"/>
       <use x="127.24609375" xlink:href="#BitstreamVeraSans-Roman-30"/>
      </g>
     </g>
    </g>
    <g id="text_16">
     <!-- Density -->
     <defs>
      <path d="M 9.421875 54.6875 
L 18.40625 54.6875 
L 18.40625 0 
L 9.421875 0 
z
M 9.421875 75.984375 
L 18.40625 75.984375 
L 18.40625 64.59375 
L 9.421875 64.59375 
z
" id="BitstreamVeraSans-Roman-69"/>
      <path d="M 19.671875 64.796875 
L 19.671875 8.109375 
L 31.59375 8.109375 
Q 46.6875 8.109375 53.6875 14.9375 
Q 60.6875 21.78125 60.6875 36.53125 
Q 60.6875 51.171875 53.6875 57.984375 
Q 46.6875 64.796875 31.59375 64.796875 
z
M 9.8125 72.90625 
L 30.078125 72.90625 
Q 51.265625 72.90625 61.171875 64.09375 
Q 71.09375 55.28125 71.09375 36.53125 
Q 71.09375 17.671875 61.125 8.828125 
Q 51.171875 0 30.078125 0 
L 9.8125 0 
z
" id="BitstreamVeraSans-Roman-44"/>
      <path d="M 32.171875 -5.078125 
Q 28.375 -14.84375 24.75 -17.8125 
Q 21.140625 -20.796875 15.09375 -20.796875 
L 7.90625 -20.796875 
L 7.90625 -13.28125 
L 13.1875 -13.28125 
Q 16.890625 -13.28125 18.9375 -11.515625 
Q 21 -9.765625 23.484375 -3.21875 
L 25.09375 0.875 
L 2.984375 54.6875 
L 12.5 54.6875 
L 29.59375 11.921875 
L 46.6875 54.6875 
L 56.203125 54.6875 
z
" id="BitstreamVeraSans-Roman-79"/>
      <path d="M 54.890625 33.015625 
L 54.890625 0 
L 45.90625 0 
L 45.90625 32.71875 
Q 45.90625 40.484375 42.875 44.328125 
Q 39.84375 48.1875 33.796875 48.1875 
Q 26.515625 48.1875 22.3125 43.546875 
Q 18.109375 38.921875 18.109375 30.90625 
L 18.109375 0 
L 9.078125 0 
L 9.078125 54.6875 
L 18.109375 54.6875 
L 18.109375 46.1875 
Q 21.34375 51.125 25.703125 53.5625 
Q 30.078125 56 35.796875 56 
Q 45.21875 56 50.046875 50.171875 
Q 54.890625 44.34375 54.890625 33.015625 
" id="BitstreamVeraSans-Roman-6e"/>
      <path d="M 44.28125 53.078125 
L 44.28125 44.578125 
Q 40.484375 46.53125 36.375 47.5 
Q 32.28125 48.484375 27.875 48.484375 
Q 21.1875 48.484375 17.84375 46.4375 
Q 14.5 44.390625 14.5 40.28125 
Q 14.5 37.15625 16.890625 35.375 
Q 19.28125 33.59375 26.515625 31.984375 
L 29.59375 31.296875 
Q 39.15625 29.25 43.1875 25.515625 
Q 47.21875 21.78125 47.21875 15.09375 
Q 47.21875 7.46875 41.1875 3.015625 
Q 35.15625 -1.421875 24.609375 -1.421875 
Q 20.21875 -1.421875 15.453125 -0.5625 
Q 10.6875 0.296875 5.421875 2 
L 5.421875 11.28125 
Q 10.40625 8.6875 15.234375 7.390625 
Q 20.0625 6.109375 24.8125 6.109375 
Q 31.15625 6.109375 34.5625 8.28125 
Q 37.984375 10.453125 37.984375 14.40625 
Q 37.984375 18.0625 35.515625 20.015625 
Q 33.0625 21.96875 24.703125 23.78125 
L 21.578125 24.515625 
Q 13.234375 26.265625 9.515625 29.90625 
Q 5.8125 33.546875 5.8125 39.890625 
Q 5.8125 47.609375 11.28125 51.796875 
Q 16.75 56 26.8125 56 
Q 31.78125 56 36.171875 55.265625 
Q 40.578125 54.546875 44.28125 53.078125 
" id="BitstreamVeraSans-Roman-73"/>
      <path d="M 18.3125 70.21875 
L 18.3125 54.6875 
L 36.8125 54.6875 
L 36.8125 47.703125 
L 18.3125 47.703125 
L 18.3125 18.015625 
Q 18.3125 11.328125 20.140625 9.421875 
Q 21.96875 7.515625 27.59375 7.515625 
L 36.8125 7.515625 
L 36.8125 0 
L 27.59375 0 
Q 17.1875 0 13.234375 3.875 
Q 9.28125 7.765625 9.28125 18.015625 
L 9.28125 47.703125 
L 2.6875 47.703125 
L 2.6875 54.6875 
L 9.28125 54.6875 
L 9.28125 70.21875 
z
" id="BitstreamVeraSans-Roman-74"/>
      <path d="M 56.203125 29.59375 
L 56.203125 25.203125 
L 14.890625 25.203125 
Q 15.484375 15.921875 20.484375 11.0625 
Q 25.484375 6.203125 34.421875 6.203125 
Q 39.59375 6.203125 44.453125 7.46875 
Q 49.3125 8.734375 54.109375 11.28125 
L 54.109375 2.78125 
Q 49.265625 0.734375 44.1875 -0.34375 
Q 39.109375 -1.421875 33.890625 -1.421875 
Q 20.796875 -1.421875 13.15625 6.1875 
Q 5.515625 13.8125 5.515625 26.8125 
Q 5.515625 40.234375 12.765625 48.109375 
Q 20.015625 56 32.328125 56 
Q 43.359375 56 49.78125 48.890625 
Q 56.203125 41.796875 56.203125 29.59375 
M 47.21875 32.234375 
Q 47.125 39.59375 43.09375 43.984375 
Q 39.0625 48.390625 32.421875 48.390625 
Q 24.90625 48.390625 20.390625 44.140625 
Q 15.875 39.890625 15.1875 32.171875 
z
" id="BitstreamVeraSans-Roman-65"/>
     </defs>
     <g transform="translate(19.1178125 161.7794375)rotate(-90.0)scale(0.08 -0.08)">
      <use xlink:href="#BitstreamVeraSans-Roman-44"/>
      <use x="77.001953125" xlink:href="#BitstreamVeraSans-Roman-65"/>
      <use x="138.525390625" xlink:href="#BitstreamVeraSans-Roman-6e"/>
      <use x="201.904296875" xlink:href="#BitstreamVeraSans-Roman-73"/>
      <use x="254.00390625" xlink:href="#BitstreamVeraSans-Roman-69"/>
      <use x="281.787109375" xlink:href="#BitstreamVeraSans-Roman-74"/>
      <use x="320.99609375" xlink:href="#BitstreamVeraSans-Roman-79"/>
     </g>
    </g>
   </g>
   <g id="text_17">
    <!-- 104 Puerto Ricans from Puerto Rico, -->
    <defs>
     <path d="M 11.71875 12.40625 
L 22.015625 12.40625 
L 22.015625 4 
L 14.015625 -11.625 
L 7.71875 -11.625 
L 11.71875 4 
z
" id="BitstreamVeraSans-Roman-2c"/>
     <path d="M 44.390625 34.1875 
Q 47.5625 33.109375 50.5625 29.59375 
Q 53.5625 26.078125 56.59375 19.921875 
L 66.609375 0 
L 56 0 
L 46.6875 18.703125 
Q 43.0625 26.03125 39.671875 28.421875 
Q 36.28125 30.8125 30.421875 30.8125 
L 19.671875 30.8125 
L 19.671875 0 
L 9.8125 0 
L 9.8125 72.90625 
L 32.078125 72.90625 
Q 44.578125 72.90625 50.734375 67.671875 
Q 56.890625 62.453125 56.890625 51.90625 
Q 56.890625 45.015625 53.6875 40.46875 
Q 50.484375 35.9375 44.390625 34.1875 
M 19.671875 64.796875 
L 19.671875 38.921875 
L 32.078125 38.921875 
Q 39.203125 38.921875 42.84375 42.21875 
Q 46.484375 45.515625 46.484375 51.90625 
Q 46.484375 58.296875 42.84375 61.546875 
Q 39.203125 64.796875 32.078125 64.796875 
z
" id="BitstreamVeraSans-Roman-52"/>
     <path id="BitstreamVeraSans-Roman-20"/>
     <path d="M 19.671875 64.796875 
L 19.671875 37.40625 
L 32.078125 37.40625 
Q 38.96875 37.40625 42.71875 40.96875 
Q 46.484375 44.53125 46.484375 51.125 
Q 46.484375 57.671875 42.71875 61.234375 
Q 38.96875 64.796875 32.078125 64.796875 
z
M 9.8125 72.90625 
L 32.078125 72.90625 
Q 44.34375 72.90625 50.609375 67.359375 
Q 56.890625 61.8125 56.890625 51.125 
Q 56.890625 40.328125 50.609375 34.8125 
Q 44.34375 29.296875 32.078125 29.296875 
L 19.671875 29.296875 
L 19.671875 0 
L 9.8125 0 
z
" id="BitstreamVeraSans-Roman-50"/>
     <path d="M 30.609375 48.390625 
Q 23.390625 48.390625 19.1875 42.75 
Q 14.984375 37.109375 14.984375 27.296875 
Q 14.984375 17.484375 19.15625 11.84375 
Q 23.34375 6.203125 30.609375 6.203125 
Q 37.796875 6.203125 41.984375 11.859375 
Q 46.1875 17.53125 46.1875 27.296875 
Q 46.1875 37.015625 41.984375 42.703125 
Q 37.796875 48.390625 30.609375 48.390625 
M 30.609375 56 
Q 42.328125 56 49.015625 48.375 
Q 55.71875 40.765625 55.71875 27.296875 
Q 55.71875 13.875 49.015625 6.21875 
Q 42.328125 -1.421875 30.609375 -1.421875 
Q 18.84375 -1.421875 12.171875 6.21875 
Q 5.515625 13.875 5.515625 27.296875 
Q 5.515625 40.765625 12.171875 48.375 
Q 18.84375 56 30.609375 56 
" id="BitstreamVeraSans-Roman-6f"/>
     <path d="M 37.109375 75.984375 
L 37.109375 68.5 
L 28.515625 68.5 
Q 23.6875 68.5 21.796875 66.546875 
Q 19.921875 64.59375 19.921875 59.515625 
L 19.921875 54.6875 
L 34.71875 54.6875 
L 34.71875 47.703125 
L 19.921875 47.703125 
L 19.921875 0 
L 10.890625 0 
L 10.890625 47.703125 
L 2.296875 47.703125 
L 2.296875 54.6875 
L 10.890625 54.6875 
L 10.890625 58.5 
Q 10.890625 67.625 15.140625 71.796875 
Q 19.390625 75.984375 28.609375 75.984375 
z
" id="BitstreamVeraSans-Roman-66"/>
     <path d="M 52 44.1875 
Q 55.375 50.25 60.0625 53.125 
Q 64.75 56 71.09375 56 
Q 79.640625 56 84.28125 50.015625 
Q 88.921875 44.046875 88.921875 33.015625 
L 88.921875 0 
L 79.890625 0 
L 79.890625 32.71875 
Q 79.890625 40.578125 77.09375 44.375 
Q 74.3125 48.1875 68.609375 48.1875 
Q 61.625 48.1875 57.5625 43.546875 
Q 53.515625 38.921875 53.515625 30.90625 
L 53.515625 0 
L 44.484375 0 
L 44.484375 32.71875 
Q 44.484375 40.625 41.703125 44.40625 
Q 38.921875 48.1875 33.109375 48.1875 
Q 26.21875 48.1875 22.15625 43.53125 
Q 18.109375 38.875 18.109375 30.90625 
L 18.109375 0 
L 9.078125 0 
L 9.078125 54.6875 
L 18.109375 54.6875 
L 18.109375 46.1875 
Q 21.1875 51.21875 25.484375 53.609375 
Q 29.78125 56 35.6875 56 
Q 41.65625 56 45.828125 52.96875 
Q 50 49.953125 52 44.1875 
" id="BitstreamVeraSans-Roman-6d"/>
     <path d="M 8.5 21.578125 
L 8.5 54.6875 
L 17.484375 54.6875 
L 17.484375 21.921875 
Q 17.484375 14.15625 20.5 10.265625 
Q 23.53125 6.390625 29.59375 6.390625 
Q 36.859375 6.390625 41.078125 11.03125 
Q 45.3125 15.671875 45.3125 23.6875 
L 45.3125 54.6875 
L 54.296875 54.6875 
L 54.296875 0 
L 45.3125 0 
L 45.3125 8.40625 
Q 42.046875 3.421875 37.71875 1 
Q 33.40625 -1.421875 27.6875 -1.421875 
Q 18.265625 -1.421875 13.375 4.4375 
Q 8.5 10.296875 8.5 21.578125 
" id="BitstreamVeraSans-Roman-75"/>
     <path d="M 41.109375 46.296875 
Q 39.59375 47.171875 37.8125 47.578125 
Q 36.03125 48 33.890625 48 
Q 26.265625 48 22.1875 43.046875 
Q 18.109375 38.09375 18.109375 28.8125 
L 18.109375 0 
L 9.078125 0 
L 9.078125 54.6875 
L 18.109375 54.6875 
L 18.109375 46.1875 
Q 20.953125 51.171875 25.484375 53.578125 
Q 30.03125 56 36.53125 56 
Q 37.453125 56 38.578125 55.875 
Q 39.703125 55.765625 41.0625 55.515625 
z
" id="BitstreamVeraSans-Roman-72"/>
     <path d="M 48.78125 52.59375 
L 48.78125 44.1875 
Q 44.96875 46.296875 41.140625 47.34375 
Q 37.3125 48.390625 33.40625 48.390625 
Q 24.65625 48.390625 19.8125 42.84375 
Q 14.984375 37.3125 14.984375 27.296875 
Q 14.984375 17.28125 19.8125 11.734375 
Q 24.65625 6.203125 33.40625 6.203125 
Q 37.3125 6.203125 41.140625 7.25 
Q 44.96875 8.296875 48.78125 10.40625 
L 48.78125 2.09375 
Q 45.015625 0.34375 40.984375 -0.53125 
Q 36.96875 -1.421875 32.421875 -1.421875 
Q 20.0625 -1.421875 12.78125 6.34375 
Q 5.515625 14.109375 5.515625 27.296875 
Q 5.515625 40.671875 12.859375 48.328125 
Q 20.21875 56 33.015625 56 
Q 37.15625 56 41.109375 55.140625 
Q 45.0625 54.296875 48.78125 52.59375 
" id="BitstreamVeraSans-Roman-63"/>
     <path d="M 34.28125 27.484375 
Q 23.390625 27.484375 19.1875 25 
Q 14.984375 22.515625 14.984375 16.5 
Q 14.984375 11.71875 18.140625 8.90625 
Q 21.296875 6.109375 26.703125 6.109375 
Q 34.1875 6.109375 38.703125 11.40625 
Q 43.21875 16.703125 43.21875 25.484375 
L 43.21875 27.484375 
z
M 52.203125 31.203125 
L 52.203125 0 
L 43.21875 0 
L 43.21875 8.296875 
Q 40.140625 3.328125 35.546875 0.953125 
Q 30.953125 -1.421875 24.3125 -1.421875 
Q 15.921875 -1.421875 10.953125 3.296875 
Q 6 8.015625 6 15.921875 
Q 6 25.140625 12.171875 29.828125 
Q 18.359375 34.515625 30.609375 34.515625 
L 43.21875 34.515625 
L 43.21875 35.40625 
Q 43.21875 41.609375 39.140625 45 
Q 35.0625 48.390625 27.6875 48.390625 
Q 23 48.390625 18.546875 47.265625 
Q 14.109375 46.140625 10.015625 43.890625 
L 10.015625 52.203125 
Q 14.9375 54.109375 19.578125 55.046875 
Q 24.21875 56 28.609375 56 
Q 40.484375 56 46.34375 49.84375 
Q 52.203125 43.703125 52.203125 31.203125 
" id="BitstreamVeraSans-Roman-61"/>
    </defs>
    <g transform="translate(212.609609375 19.30175)scale(0.08 -0.08)">
     <use xlink:href="#BitstreamVeraSans-Roman-31"/>
     <use x="63.623046875" xlink:href="#BitstreamVeraSans-Roman-30"/>
     <use x="127.24609375" xlink:href="#BitstreamVeraSans-Roman-34"/>
     <use x="190.869140625" xlink:href="#BitstreamVeraSans-Roman-20"/>
     <use x="222.65625" xlink:href="#BitstreamVeraSans-Roman-50"/>
     <use x="282.943359375" xlink:href="#BitstreamVeraSans-Roman-75"/>
     <use x="346.322265625" xlink:href="#BitstreamVeraSans-Roman-65"/>
     <use x="407.845703125" xlink:href="#BitstreamVeraSans-Roman-72"/>
     <use x="448.958984375" xlink:href="#BitstreamVeraSans-Roman-74"/>
     <use x="488.16796875" xlink:href="#BitstreamVeraSans-Roman-6f"/>
     <use x="549.349609375" xlink:href="#BitstreamVeraSans-Roman-20"/>
     <use x="581.13671875" xlink:href="#BitstreamVeraSans-Roman-52"/>
     <use x="650.619140625" xlink:href="#BitstreamVeraSans-Roman-69"/>
     <use x="678.40234375" xlink:href="#BitstreamVeraSans-Roman-63"/>
     <use x="733.3828125" xlink:href="#BitstreamVeraSans-Roman-61"/>
     <use x="794.662109375" xlink:href="#BitstreamVeraSans-Roman-6e"/>
     <use x="858.041015625" xlink:href="#BitstreamVeraSans-Roman-73"/>
     <use x="910.140625" xlink:href="#BitstreamVeraSans-Roman-20"/>
     <use x="941.927734375" xlink:href="#BitstreamVeraSans-Roman-66"/>
     <use x="977.1328125" xlink:href="#BitstreamVeraSans-Roman-72"/>
     <use x="1018.21484375" xlink:href="#BitstreamVeraSans-Roman-6f"/>
     <use x="1079.396484375" xlink:href="#BitstreamVeraSans-Roman-6d"/>
     <use x="1176.80859375" xlink:href="#BitstreamVeraSans-Roman-20"/>
     <use x="1208.595703125" xlink:href="#BitstreamVeraSans-Roman-50"/>
     <use x="1268.8828125" xlink:href="#BitstreamVeraSans-Roman-75"/>
     <use x="1332.26171875" xlink:href="#BitstreamVeraSans-Roman-65"/>
     <use x="1393.78515625" xlink:href="#BitstreamVeraSans-Roman-72"/>
     <use x="1434.8984375" xlink:href="#BitstreamVeraSans-Roman-74"/>
     <use x="1474.107421875" xlink:href="#BitstreamVeraSans-Roman-6f"/>
     <use x="1535.2890625" xlink:href="#BitstreamVeraSans-Roman-20"/>
     <use x="1567.076171875" xlink:href="#BitstreamVeraSans-Roman-52"/>
     <use x="1636.55859375" xlink:href="#BitstreamVeraSans-Roman-69"/>
     <use x="1664.341796875" xlink:href="#BitstreamVeraSans-Roman-63"/>
     <use x="1719.322265625" xlink:href="#BitstreamVeraSans-Roman-6f"/>
     <use x="1780.50390625" xlink:href="#BitstreamVeraSans-Roman-2c"/>
    </g>
    <!--  p-value=0.207 (14 alleles up to a minor allele count of 0.01) -->
    <defs>
     <path d="M 10.59375 45.40625 
L 73.1875 45.40625 
L 73.1875 37.203125 
L 10.59375 37.203125 
z
M 10.59375 25.484375 
L 73.1875 25.484375 
L 73.1875 17.1875 
L 10.59375 17.1875 
z
" id="BitstreamVeraSans-Roman-3d"/>
     <path d="M 18.109375 8.203125 
L 18.109375 -20.796875 
L 9.078125 -20.796875 
L 9.078125 54.6875 
L 18.109375 54.6875 
L 18.109375 46.390625 
Q 20.953125 51.265625 25.265625 53.625 
Q 29.59375 56 35.59375 56 
Q 45.5625 56 51.78125 48.09375 
Q 58.015625 40.1875 58.015625 27.296875 
Q 58.015625 14.40625 51.78125 6.484375 
Q 45.5625 -1.421875 35.59375 -1.421875 
Q 29.59375 -1.421875 25.265625 0.953125 
Q 20.953125 3.328125 18.109375 8.203125 
M 48.6875 27.296875 
Q 48.6875 37.203125 44.609375 42.84375 
Q 40.53125 48.484375 33.40625 48.484375 
Q 26.265625 48.484375 22.1875 42.84375 
Q 18.109375 37.203125 18.109375 27.296875 
Q 18.109375 17.390625 22.1875 11.75 
Q 26.265625 6.109375 33.40625 6.109375 
Q 40.53125 6.109375 44.609375 11.75 
Q 48.6875 17.390625 48.6875 27.296875 
" id="BitstreamVeraSans-Roman-70"/>
     <path d="M 8.015625 75.875 
L 15.828125 75.875 
Q 23.140625 64.359375 26.78125 53.3125 
Q 30.421875 42.28125 30.421875 31.390625 
Q 30.421875 20.453125 26.78125 9.375 
Q 23.140625 -1.703125 15.828125 -13.1875 
L 8.015625 -13.1875 
Q 14.5 -2 17.703125 9.0625 
Q 20.90625 20.125 20.90625 31.390625 
Q 20.90625 42.671875 17.703125 53.65625 
Q 14.5 64.65625 8.015625 75.875 
" id="BitstreamVeraSans-Roman-29"/>
     <path d="M 31 75.875 
Q 24.46875 64.65625 21.28125 53.65625 
Q 18.109375 42.671875 18.109375 31.390625 
Q 18.109375 20.125 21.3125 9.0625 
Q 24.515625 -2 31 -13.1875 
L 23.1875 -13.1875 
Q 15.875 -1.703125 12.234375 9.375 
Q 8.59375 20.453125 8.59375 31.390625 
Q 8.59375 42.28125 12.203125 53.3125 
Q 15.828125 64.359375 23.1875 75.875 
z
" id="BitstreamVeraSans-Roman-28"/>
     <path d="M 2.984375 54.6875 
L 12.5 54.6875 
L 29.59375 8.796875 
L 46.6875 54.6875 
L 56.203125 54.6875 
L 35.6875 0 
L 23.484375 0 
z
" id="BitstreamVeraSans-Roman-76"/>
     <path d="M 8.203125 72.90625 
L 55.078125 72.90625 
L 55.078125 68.703125 
L 28.609375 0 
L 18.3125 0 
L 43.21875 64.59375 
L 8.203125 64.59375 
z
" id="BitstreamVeraSans-Roman-37"/>
     <path d="M 9.421875 75.984375 
L 18.40625 75.984375 
L 18.40625 0 
L 9.421875 0 
z
" id="BitstreamVeraSans-Roman-6c"/>
     <path d="M 4.890625 31.390625 
L 31.203125 31.390625 
L 31.203125 23.390625 
L 4.890625 23.390625 
z
" id="BitstreamVeraSans-Roman-2d"/>
    </defs>
    <g transform="translate(162.472734375 28.26)scale(0.08 -0.08)">
     <use xlink:href="#BitstreamVeraSans-Roman-20"/>
     <use x="31.787109375" xlink:href="#BitstreamVeraSans-Roman-70"/>
     <use x="95.263671875" xlink:href="#BitstreamVeraSans-Roman-2d"/>
     <use x="131.31640625" xlink:href="#BitstreamVeraSans-Roman-76"/>
     <use x="190.49609375" xlink:href="#BitstreamVeraSans-Roman-61"/>
     <use x="251.775390625" xlink:href="#BitstreamVeraSans-Roman-6c"/>
     <use x="279.55859375" xlink:href="#BitstreamVeraSans-Roman-75"/>
     <use x="342.9375" xlink:href="#BitstreamVeraSans-Roman-65"/>
     <use x="404.4609375" xlink:href="#BitstreamVeraSans-Roman-3d"/>
     <use x="488.25" xlink:href="#BitstreamVeraSans-Roman-30"/>
     <use x="551.873046875" xlink:href="#BitstreamVeraSans-Roman-2e"/>
     <use x="583.66015625" xlink:href="#BitstreamVeraSans-Roman-32"/>
     <use x="647.283203125" xlink:href="#BitstreamVeraSans-Roman-30"/>
     <use x="710.90625" xlink:href="#BitstreamVeraSans-Roman-37"/>
     <use x="774.529296875" xlink:href="#BitstreamVeraSans-Roman-20"/>
     <use x="806.31640625" xlink:href="#BitstreamVeraSans-Roman-28"/>
     <use x="845.330078125" xlink:href="#BitstreamVeraSans-Roman-31"/>
     <use x="908.953125" xlink:href="#BitstreamVeraSans-Roman-34"/>
     <use x="972.576171875" xlink:href="#BitstreamVeraSans-Roman-20"/>
     <use x="1004.36328125" xlink:href="#BitstreamVeraSans-Roman-61"/>
     <use x="1065.642578125" xlink:href="#BitstreamVeraSans-Roman-6c"/>
     <use x="1093.42578125" xlink:href="#BitstreamVeraSans-Roman-6c"/>
     <use x="1121.208984375" xlink:href="#BitstreamVeraSans-Roman-65"/>
     <use x="1182.732421875" xlink:href="#BitstreamVeraSans-Roman-6c"/>
     <use x="1210.515625" xlink:href="#BitstreamVeraSans-Roman-65"/>
     <use x="1272.0390625" xlink:href="#BitstreamVeraSans-Roman-73"/>
     <use x="1324.138671875" xlink:href="#BitstreamVeraSans-Roman-20"/>
     <use x="1355.92578125" xlink:href="#BitstreamVeraSans-Roman-75"/>
     <use x="1419.3046875" xlink:href="#BitstreamVeraSans-Roman-70"/>
     <use x="1482.78125" xlink:href="#BitstreamVeraSans-Roman-20"/>
     <use x="1514.568359375" xlink:href="#BitstreamVeraSans-Roman-74"/>
     <use x="1553.77734375" xlink:href="#BitstreamVeraSans-Roman-6f"/>
     <use x="1614.958984375" xlink:href="#BitstreamVeraSans-Roman-20"/>
     <use x="1646.74609375" xlink:href="#BitstreamVeraSans-Roman-61"/>
     <use x="1708.025390625" xlink:href="#BitstreamVeraSans-Roman-20"/>
     <use x="1739.8125" xlink:href="#BitstreamVeraSans-Roman-6d"/>
     <use x="1837.224609375" xlink:href="#BitstreamVeraSans-Roman-69"/>
     <use x="1865.0078125" xlink:href="#BitstreamVeraSans-Roman-6e"/>
     <use x="1928.38671875" xlink:href="#BitstreamVeraSans-Roman-6f"/>
     <use x="1989.568359375" xlink:href="#BitstreamVeraSans-Roman-72"/>
     <use x="2030.681640625" xlink:href="#BitstreamVeraSans-Roman-20"/>
     <use x="2062.46875" xlink:href="#BitstreamVeraSans-Roman-61"/>
     <use x="2123.748046875" xlink:href="#BitstreamVeraSans-Roman-6c"/>
     <use x="2151.53125" xlink:href="#BitstreamVeraSans-Roman-6c"/>
     <use x="2179.314453125" xlink:href="#BitstreamVeraSans-Roman-65"/>
     <use x="2240.837890625" xlink:href="#BitstreamVeraSans-Roman-6c"/>
     <use x="2268.62109375" xlink:href="#BitstreamVeraSans-Roman-65"/>
     <use x="2330.14453125" xlink:href="#BitstreamVeraSans-Roman-20"/>
     <use x="2361.931640625" xlink:href="#BitstreamVeraSans-Roman-63"/>
     <use x="2416.912109375" xlink:href="#BitstreamVeraSans-Roman-6f"/>
     <use x="2478.09375" xlink:href="#BitstreamVeraSans-Roman-75"/>
     <use x="2541.47265625" xlink:href="#BitstreamVeraSans-Roman-6e"/>
     <use x="2604.8515625" xlink:href="#BitstreamVeraSans-Roman-74"/>
     <use x="2644.060546875" xlink:href="#BitstreamVeraSans-Roman-20"/>
     <use x="2675.84765625" xlink:href="#BitstreamVeraSans-Roman-6f"/>
     <use x="2737.029296875" xlink:href="#BitstreamVeraSans-Roman-66"/>
     <use x="2772.234375" xlink:href="#BitstreamVeraSans-Roman-20"/>
     <use x="2804.021484375" xlink:href="#BitstreamVeraSans-Roman-30"/>
     <use x="2867.64453125" xlink:href="#BitstreamVeraSans-Roman-2e"/>
     <use x="2899.431640625" xlink:href="#BitstreamVeraSans-Roman-30"/>
     <use x="2963.0546875" xlink:href="#BitstreamVeraSans-Roman-31"/>
     <use x="3026.677734375" xlink:href="#BitstreamVeraSans-Roman-29"/>
    </g>
   </g>
   <g id="legend_1">
    <g id="patch_107">
     <path d="M 330.303906 75.945 
L 513.512656 75.945 
L 513.512656 37.26 
L 330.303906 37.26 
z
" style="fill:#ffffff;stroke:#000000;stroke-linejoin:miter;"/>
    </g>
    <g id="line2d_30">
     <path d="M 335.903906 44.46 
L 347.103906 44.46 
" style="fill:none;stroke:#eb6231;stroke-linecap:square;stroke-width:3.0;"/>
    </g>
    <g id="line2d_31"/>
    <g id="text_18">
     <!-- LoF ($\sigma^2/V_{A}$=1.04314) -->
     <defs>
      <path d="M 40.578125 39.3125 
Q 47.65625 37.796875 51.625 33 
Q 55.609375 28.21875 55.609375 21.1875 
Q 55.609375 10.40625 48.1875 4.484375 
Q 40.765625 -1.421875 27.09375 -1.421875 
Q 22.515625 -1.421875 17.65625 -0.515625 
Q 12.796875 0.390625 7.625 2.203125 
L 7.625 11.71875 
Q 11.71875 9.328125 16.59375 8.109375 
Q 21.484375 6.890625 26.8125 6.890625 
Q 36.078125 6.890625 40.9375 10.546875 
Q 45.796875 14.203125 45.796875 21.1875 
Q 45.796875 27.640625 41.28125 31.265625 
Q 36.765625 34.90625 28.71875 34.90625 
L 20.21875 34.90625 
L 20.21875 43.015625 
L 29.109375 43.015625 
Q 36.375 43.015625 40.234375 45.921875 
Q 44.09375 48.828125 44.09375 54.296875 
Q 44.09375 59.90625 40.109375 62.90625 
Q 36.140625 65.921875 28.71875 65.921875 
Q 24.65625 65.921875 20.015625 65.03125 
Q 15.375 64.15625 9.8125 62.3125 
L 9.8125 71.09375 
Q 15.4375 72.65625 20.34375 73.4375 
Q 25.25 74.21875 29.59375 74.21875 
Q 40.828125 74.21875 47.359375 69.109375 
Q 53.90625 64.015625 53.90625 55.328125 
Q 53.90625 49.265625 50.4375 45.09375 
Q 46.96875 40.921875 40.578125 39.3125 
" id="BitstreamVeraSans-Roman-33"/>
      <path d="M 9.8125 72.90625 
L 51.703125 72.90625 
L 51.703125 64.59375 
L 19.671875 64.59375 
L 19.671875 43.109375 
L 48.578125 43.109375 
L 48.578125 34.8125 
L 19.671875 34.8125 
L 19.671875 0 
L 9.8125 0 
z
" id="BitstreamVeraSans-Roman-46"/>
      <path d="M 9.8125 72.90625 
L 19.671875 72.90625 
L 19.671875 8.296875 
L 55.171875 8.296875 
L 55.171875 0 
L 9.8125 0 
z
" id="BitstreamVeraSans-Roman-4c"/>
     </defs>
     <g transform="translate(355.90390625 47.26)scale(0.08 -0.08)">
      <use transform="translate(0.0 0.109375)" xlink:href="#BitstreamVeraSans-Roman-4c"/>
      <use transform="translate(55.712890625 0.109375)" xlink:href="#BitstreamVeraSans-Roman-6f"/>
      <use transform="translate(116.89453125 0.109375)" xlink:href="#BitstreamVeraSans-Roman-46"/>
      <use transform="translate(174.4140625 0.109375)" xlink:href="#BitstreamVeraSans-Roman-20"/>
      <use transform="translate(206.201171875 0.109375)" xlink:href="#BitstreamVeraSans-Roman-28"/>
      <use transform="translate(245.21484375 0.109375)" xlink:href="#Cmmi10-be"/>
      <use transform="translate(308.371796875 38.3734375)scale(0.7)" xlink:href="#Cmr10-32"/>
      <use transform="translate(349.749140625 0.109375)" xlink:href="#Cmmi10-3d"/>
      <use transform="translate(399.749140625 0.109375)" xlink:href="#Cmmi10-56"/>
      <use transform="translate(458.049921875 -16.896874999999994)scale(0.7)" xlink:href="#Cmmi10-41"/>
      <use transform="translate(516.927265625 0.109375)" xlink:href="#BitstreamVeraSans-Roman-3d"/>
      <use transform="translate(600.716328125 0.109375)" xlink:href="#BitstreamVeraSans-Roman-31"/>
      <use transform="translate(664.339375 0.109375)" xlink:href="#BitstreamVeraSans-Roman-2e"/>
      <use transform="translate(696.126484375 0.109375)" xlink:href="#BitstreamVeraSans-Roman-30"/>
      <use transform="translate(759.74953125 0.109375)" xlink:href="#BitstreamVeraSans-Roman-34"/>
      <use transform="translate(823.372578125 0.109375)" xlink:href="#BitstreamVeraSans-Roman-33"/>
      <use transform="translate(886.995625 0.109375)" xlink:href="#BitstreamVeraSans-Roman-31"/>
      <use transform="translate(950.618671875 0.109375)" xlink:href="#BitstreamVeraSans-Roman-34"/>
      <use transform="translate(1014.24171875 0.109375)" xlink:href="#BitstreamVeraSans-Roman-29"/>
     </g>
    </g>
    <g id="patch_108">
     <path d="M 333.503906 59.33875 
L 349.503906 59.33875 
L 349.503906 53.73875 
L 333.503906 53.73875 
z
" style="fill:#5d80b4;opacity:0.4;stroke:#000000;stroke-linejoin:miter;"/>
    </g>
    <g id="text_19">
     <!-- Synonymous (10,000 resampling) -->
     <defs>
      <path d="M 45.40625 27.984375 
Q 45.40625 37.75 41.375 43.109375 
Q 37.359375 48.484375 30.078125 48.484375 
Q 22.859375 48.484375 18.828125 43.109375 
Q 14.796875 37.75 14.796875 27.984375 
Q 14.796875 18.265625 18.828125 12.890625 
Q 22.859375 7.515625 30.078125 7.515625 
Q 37.359375 7.515625 41.375 12.890625 
Q 45.40625 18.265625 45.40625 27.984375 
M 54.390625 6.78125 
Q 54.390625 -7.171875 48.1875 -13.984375 
Q 42 -20.796875 29.203125 -20.796875 
Q 24.46875 -20.796875 20.265625 -20.09375 
Q 16.0625 -19.390625 12.109375 -17.921875 
L 12.109375 -9.1875 
Q 16.0625 -11.328125 19.921875 -12.34375 
Q 23.78125 -13.375 27.78125 -13.375 
Q 36.625 -13.375 41.015625 -8.765625 
Q 45.40625 -4.15625 45.40625 5.171875 
L 45.40625 9.625 
Q 42.625 4.78125 38.28125 2.390625 
Q 33.9375 0 27.875 0 
Q 17.828125 0 11.671875 7.65625 
Q 5.515625 15.328125 5.515625 27.984375 
Q 5.515625 40.671875 11.671875 48.328125 
Q 17.828125 56 27.875 56 
Q 33.9375 56 38.28125 53.609375 
Q 42.625 51.21875 45.40625 46.390625 
L 45.40625 54.6875 
L 54.390625 54.6875 
z
" id="BitstreamVeraSans-Roman-67"/>
      <path d="M 53.515625 70.515625 
L 53.515625 60.890625 
Q 47.90625 63.578125 42.921875 64.890625 
Q 37.9375 66.21875 33.296875 66.21875 
Q 25.25 66.21875 20.875 63.09375 
Q 16.5 59.96875 16.5 54.203125 
Q 16.5 49.359375 19.40625 46.890625 
Q 22.3125 44.4375 30.421875 42.921875 
L 36.375 41.703125 
Q 47.40625 39.59375 52.65625 34.296875 
Q 57.90625 29 57.90625 20.125 
Q 57.90625 9.515625 50.796875 4.046875 
Q 43.703125 -1.421875 29.984375 -1.421875 
Q 24.8125 -1.421875 18.96875 -0.25 
Q 13.140625 0.921875 6.890625 3.21875 
L 6.890625 13.375 
Q 12.890625 10.015625 18.65625 8.296875 
Q 24.421875 6.59375 29.984375 6.59375 
Q 38.421875 6.59375 43.015625 9.90625 
Q 47.609375 13.234375 47.609375 19.390625 
Q 47.609375 24.75 44.3125 27.78125 
Q 41.015625 30.8125 33.5 32.328125 
L 27.484375 33.5 
Q 16.453125 35.6875 11.515625 40.375 
Q 6.59375 45.0625 6.59375 53.421875 
Q 6.59375 63.09375 13.40625 68.65625 
Q 20.21875 74.21875 32.171875 74.21875 
Q 37.3125 74.21875 42.625 73.28125 
Q 47.953125 72.359375 53.515625 70.515625 
" id="BitstreamVeraSans-Roman-53"/>
     </defs>
     <g transform="translate(355.90390625 59.33875)scale(0.08 -0.08)">
      <use xlink:href="#BitstreamVeraSans-Roman-53"/>
      <use x="63.4765625" xlink:href="#BitstreamVeraSans-Roman-79"/>
      <use x="122.65625" xlink:href="#BitstreamVeraSans-Roman-6e"/>
      <use x="186.03515625" xlink:href="#BitstreamVeraSans-Roman-6f"/>
      <use x="247.216796875" xlink:href="#BitstreamVeraSans-Roman-6e"/>
      <use x="310.595703125" xlink:href="#BitstreamVeraSans-Roman-79"/>
      <use x="369.775390625" xlink:href="#BitstreamVeraSans-Roman-6d"/>
      <use x="467.1875" xlink:href="#BitstreamVeraSans-Roman-6f"/>
      <use x="528.369140625" xlink:href="#BitstreamVeraSans-Roman-75"/>
      <use x="591.748046875" xlink:href="#BitstreamVeraSans-Roman-73"/>
      <use x="643.84765625" xlink:href="#BitstreamVeraSans-Roman-20"/>
      <use x="675.634765625" xlink:href="#BitstreamVeraSans-Roman-28"/>
      <use x="714.6484375" xlink:href="#BitstreamVeraSans-Roman-31"/>
      <use x="778.271484375" xlink:href="#BitstreamVeraSans-Roman-30"/>
      <use x="841.89453125" xlink:href="#BitstreamVeraSans-Roman-2c"/>
      <use x="873.681640625" xlink:href="#BitstreamVeraSans-Roman-30"/>
      <use x="937.3046875" xlink:href="#BitstreamVeraSans-Roman-30"/>
      <use x="1000.927734375" xlink:href="#BitstreamVeraSans-Roman-30"/>
      <use x="1064.55078125" xlink:href="#BitstreamVeraSans-Roman-20"/>
      <use x="1096.337890625" xlink:href="#BitstreamVeraSans-Roman-72"/>
      <use x="1137.419921875" xlink:href="#BitstreamVeraSans-Roman-65"/>
      <use x="1198.943359375" xlink:href="#BitstreamVeraSans-Roman-73"/>
      <use x="1251.04296875" xlink:href="#BitstreamVeraSans-Roman-61"/>
      <use x="1312.322265625" xlink:href="#BitstreamVeraSans-Roman-6d"/>
      <use x="1409.734375" xlink:href="#BitstreamVeraSans-Roman-70"/>
      <use x="1473.2109375" xlink:href="#BitstreamVeraSans-Roman-6c"/>
      <use x="1500.994140625" xlink:href="#BitstreamVeraSans-Roman-69"/>
      <use x="1528.77734375" xlink:href="#BitstreamVeraSans-Roman-6e"/>
      <use x="1592.15625" xlink:href="#BitstreamVeraSans-Roman-67"/>
      <use x="1655.6328125" xlink:href="#BitstreamVeraSans-Roman-29"/>
     </g>
    </g>
    <g id="patch_109">
     <path d="M 333.503906 71.08125 
L 349.503906 71.08125 
L 349.503906 65.48125 
L 333.503906 65.48125 
z
" style="fill:#8fb03e;opacity:0.4;stroke:#000000;stroke-linejoin:miter;"/>
    </g>
    <g id="text_20">
     <!-- Non-Synonymous (10,000 resampling) -->
     <defs>
      <path d="M 9.8125 72.90625 
L 23.09375 72.90625 
L 55.421875 11.921875 
L 55.421875 72.90625 
L 64.984375 72.90625 
L 64.984375 0 
L 51.703125 0 
L 19.390625 60.984375 
L 19.390625 0 
L 9.8125 0 
z
" id="BitstreamVeraSans-Roman-4e"/>
     </defs>
     <g transform="translate(355.90390625 71.08125)scale(0.08 -0.08)">
      <use xlink:href="#BitstreamVeraSans-Roman-4e"/>
      <use x="74.8046875" xlink:href="#BitstreamVeraSans-Roman-6f"/>
      <use x="135.986328125" xlink:href="#BitstreamVeraSans-Roman-6e"/>
      <use x="199.365234375" xlink:href="#BitstreamVeraSans-Roman-2d"/>
      <use x="235.44921875" xlink:href="#BitstreamVeraSans-Roman-53"/>
      <use x="298.92578125" xlink:href="#BitstreamVeraSans-Roman-79"/>
      <use x="358.10546875" xlink:href="#BitstreamVeraSans-Roman-6e"/>
      <use x="421.484375" xlink:href="#BitstreamVeraSans-Roman-6f"/>
      <use x="482.666015625" xlink:href="#BitstreamVeraSans-Roman-6e"/>
      <use x="546.044921875" xlink:href="#BitstreamVeraSans-Roman-79"/>
      <use x="605.224609375" xlink:href="#BitstreamVeraSans-Roman-6d"/>
      <use x="702.63671875" xlink:href="#BitstreamVeraSans-Roman-6f"/>
      <use x="763.818359375" xlink:href="#BitstreamVeraSans-Roman-75"/>
      <use x="827.197265625" xlink:href="#BitstreamVeraSans-Roman-73"/>
      <use x="879.296875" xlink:href="#BitstreamVeraSans-Roman-20"/>
      <use x="911.083984375" xlink:href="#BitstreamVeraSans-Roman-28"/>
      <use x="950.09765625" xlink:href="#BitstreamVeraSans-Roman-31"/>
      <use x="1013.720703125" xlink:href="#BitstreamVeraSans-Roman-30"/>
      <use x="1077.34375" xlink:href="#BitstreamVeraSans-Roman-2c"/>
      <use x="1109.130859375" xlink:href="#BitstreamVeraSans-Roman-30"/>
      <use x="1172.75390625" xlink:href="#BitstreamVeraSans-Roman-30"/>
      <use x="1236.376953125" xlink:href="#BitstreamVeraSans-Roman-30"/>
      <use x="1300.0" xlink:href="#BitstreamVeraSans-Roman-20"/>
      <use x="1331.787109375" xlink:href="#BitstreamVeraSans-Roman-72"/>
      <use x="1372.869140625" xlink:href="#BitstreamVeraSans-Roman-65"/>
      <use x="1434.392578125" xlink:href="#BitstreamVeraSans-Roman-73"/>
      <use x="1486.4921875" xlink:href="#BitstreamVeraSans-Roman-61"/>
      <use x="1547.771484375" xlink:href="#BitstreamVeraSans-Roman-6d"/>
      <use x="1645.18359375" xlink:href="#BitstreamVeraSans-Roman-70"/>
      <use x="1708.66015625" xlink:href="#BitstreamVeraSans-Roman-6c"/>
      <use x="1736.443359375" xlink:href="#BitstreamVeraSans-Roman-69"/>
      <use x="1764.2265625" xlink:href="#BitstreamVeraSans-Roman-6e"/>
      <use x="1827.60546875" xlink:href="#BitstreamVeraSans-Roman-67"/>
      <use x="1891.08203125" xlink:href="#BitstreamVeraSans-Roman-29"/>
     </g>
    </g>
   </g>
  </g>
 </g>
 <defs>
  <clipPath id="pa3020e783c">
   <rect height="226.625125" width="464.82609375" x="52.6865625" y="33.26"/>
  </clipPath>
 </defs>
</svg>
